<?xml version="1.0" standalone="no"?>
<!DOCTYPE svg PUBLIC "-//W3C//DTD SVG 20010904//EN"
 "http://www.w3.org/TR/2001/REC-SVG-20010904/DTD/svg10.dtd">
<svg version="1.0" xmlns="http://www.w3.org/2000/svg"
 width="128.000000pt" height="128.000000pt" viewBox="0 0 128.000000 128.000000"
 preserveAspectRatio="xMidYMid meet">
<metadata>
Created by potrace 1.16, written by Peter Selinger 2001-2019
</metadata>
<g transform="translate(0.000000,128.000000) scale(0.100000,-0.100000)"
fill="#000000" stroke="none">
<path d="M252 567 c-28 -30 -28 -68 1 -95 48 -45 127 -16 127 48 0 65 -83 95
-128 47z"/>
<path d="M260 320 c-22 -22 -27 -69 -8 -88 7 -7 22 -12 34 -12 13 0 26 -4 29
-10 8 -14 -12 -51 -43 -77 -30 -26 -15 -30 26 -9 39 20 58 45 72 93 16 51 1
95 -36 112 -35 16 -51 14 -74 -9z"/>
</g>
</svg>
