<?xml version="1.0" standalone="no"?>
<!DOCTYPE svg PUBLIC "-//W3C//DTD SVG 20010904//EN"
 "http://www.w3.org/TR/2001/REC-SVG-20010904/DTD/svg10.dtd">
<svg version="1.0" xmlns="http://www.w3.org/2000/svg"
 width="128.000000pt" height="128.000000pt" viewBox="0 0 128.000000 128.000000"
 preserveAspectRatio="xMidYMid meet">
<metadata>
Created by potrace 1.16, written by Peter Selinger 2001-2019
</metadata>
<g transform="translate(0.000000,128.000000) scale(0.100000,-0.100000)"
fill="#000000" stroke="none">
<path d="M742 1061 c-68 -54 -110 -108 -126 -161 -23 -77 5 -130 69 -130 39 0
75 35 75 73 0 32 -32 67 -60 67 -11 0 -20 5 -20 10 0 23 35 76 83 127 59 62
49 69 -21 14z"/>
<path d="M995 1078 c-132 -94 -194 -228 -132 -286 48 -45 127 -16 127 48 0 35
-31 70 -61 70 -17 0 -19 4 -13 23 10 33 62 105 84 117 20 11 46 50 33 50 -4 0
-21 -10 -38 -22z"/>
</g>
</svg>
