<?xml version="1.0" standalone="no"?>
<!DOCTYPE svg PUBLIC "-//W3C//DTD SVG 20010904//EN"
 "http://www.w3.org/TR/2001/REC-SVG-20010904/DTD/svg10.dtd">
<svg version="1.0" xmlns="http://www.w3.org/2000/svg"
 width="128.000000pt" height="128.000000pt" viewBox="0 0 128.000000 128.000000"
 preserveAspectRatio="xMidYMid meet">
<metadata>
Created by potrace 1.16, written by Peter Selinger 2001-2019
</metadata>
<g transform="translate(0.000000,128.000000) scale(0.100000,-0.100000)"
fill="#000000" stroke="none">
<path d="M317 1070 c-45 -36 -29 -110 27 -124 l25 -6 -21 -38 c-12 -20 -39
-56 -60 -79 -21 -24 -38 -45 -38 -48 0 -28 121 80 156 141 31 53 35 118 8 144
-31 31 -66 34 -97 10z"/>
<path d="M544 1076 c-46 -33 -37 -109 16 -127 l29 -11 -18 -36 c-11 -21 -38
-59 -61 -85 -23 -26 -41 -50 -38 -52 8 -8 108 80 137 120 29 42 51 95 51 126
0 25 -40 67 -70 74 -15 3 -34 -1 -46 -9z"/>
</g>
</svg>
