<?xml version="1.0" standalone="no"?>
<!DOCTYPE svg PUBLIC "-//W3C//DTD SVG 20010904//EN"
 "http://www.w3.org/TR/2001/REC-SVG-20010904/DTD/svg10.dtd">
<svg version="1.0" xmlns="http://www.w3.org/2000/svg"
 width="128.000000pt" height="128.000000pt" viewBox="0 0 128.000000 128.000000"
 preserveAspectRatio="xMidYMid meet">
<metadata>
Created by potrace 1.16, written by Peter Selinger 2001-2019
</metadata>
<g transform="translate(0.000000,128.000000) scale(0.100000,-0.100000)"
fill="#000000" stroke="none">
<path d="M584 655 c-21 -33 -6 -71 31 -81 34 -8 53 0 67 30 16 36 -11 76 -52
76 -21 0 -35 -8 -46 -25z"/>
<path d="M585 410 c-24 -27 -13 -68 21 -76 23 -6 25 -10 20 -37 -4 -17 -16
-41 -28 -54 -28 -30 -20 -37 18 -14 59 36 91 157 49 187 -27 20 -59 17 -80 -6z"/>
</g>
</svg>
