<?xml version="1.0" standalone="no"?>
<!DOCTYPE svg PUBLIC "-//W3C//DTD SVG 20010904//EN"
 "http://www.w3.org/TR/2001/REC-SVG-20010904/DTD/svg10.dtd">
<svg version="1.0" xmlns="http://www.w3.org/2000/svg"
 width="128.000000pt" height="128.000000pt" viewBox="0 0 128.000000 128.000000"
 preserveAspectRatio="xMidYMid meet">
<metadata>
Created by potrace 1.16, written by Peter Selinger 2001-2019
</metadata>
<g transform="translate(0.000000,128.000000) scale(0.100000,-0.100000)"
fill="#000000" stroke="none">
<path d="M572 984 c-105 -52 -163 -173 -165 -344 -1 -121 17 -197 65 -273 56
-88 148 -124 246 -97 69 18 182 136 150 156 -7 4 -18 -2 -27 -16 -53 -80 -113
-119 -184 -120 -66 0 -131 49 -161 121 -28 66 -40 209 -27 310 14 107 39 166
91 213 83 75 201 50 255 -55 38 -73 37 -295 -2 -362 -24 -40 -49 -55 -65 -39
-10 10 -7 47 11 180 12 92 25 177 28 190 4 18 1 22 -21 22 -18 0 -26 -5 -26
-17 0 -15 -1 -15 -18 0 -52 47 -120 -10 -169 -143 -28 -76 -37 -149 -23 -199
22 -83 78 -105 131 -51 l30 29 9 -24 c21 -55 88 -38 137 35 33 48 43 94 43
201 0 115 -19 186 -63 236 -65 74 -156 92 -245 47z m146 -161 c14 -26 -23
-264 -48 -312 -21 -43 -53 -60 -75 -41 -20 17 -20 128 0 203 33 127 96 203
123 150z"/>
</g>
</svg>
