<?xml version="1.0" standalone="no"?>
<!DOCTYPE svg PUBLIC "-//W3C//DTD SVG 20010904//EN"
 "http://www.w3.org/TR/2001/REC-SVG-20010904/DTD/svg10.dtd">
<svg version="1.0" xmlns="http://www.w3.org/2000/svg"
 width="128.000000pt" height="128.000000pt" viewBox="0 0 128.000000 128.000000"
 preserveAspectRatio="xMidYMid meet">
<metadata>
Created by potrace 1.16, written by Peter Selinger 2001-2019
</metadata>
<g transform="translate(0.000000,128.000000) scale(0.100000,-0.100000)"
fill="#000000" stroke="none">
<path d="M584 860 c-55 -17 -127 -73 -158 -123 -25 -41 -30 -61 -34 -132 -4
-71 -1 -90 17 -129 46 -95 145 -144 270 -133 76 6 141 32 191 75 47 40 32 51
-19 14 -55 -40 -116 -55 -204 -51 -137 7 -203 82 -195 223 4 88 39 153 107
201 39 27 50 30 121 30 64 0 84 -4 106 -21 64 -47 88 -110 73 -191 -11 -58
-56 -117 -93 -121 -22 -3 -26 0 -26 23 0 22 26 141 46 208 7 22 -34 24 -42 2
-5 -11 -11 -12 -24 -5 -34 18 -87 11 -118 -15 -88 -74 -99 -240 -18 -261 29
-7 81 18 97 48 12 22 12 22 26 -5 10 -20 21 -27 44 -27 123 0 202 187 129 307
-11 18 -38 45 -61 60 -37 24 -54 28 -123 30 -45 1 -95 -2 -112 -7z m132 -155
c4 -8 -2 -48 -12 -87 -20 -82 -58 -132 -96 -126 -44 6 -33 111 18 191 19 29
31 37 54 37 18 0 33 -6 36 -15z"/>
</g>
</svg>
