<?xml version="1.0" standalone="no"?>
<!DOCTYPE svg PUBLIC "-//W3C//DTD SVG 20010904//EN"
 "http://www.w3.org/TR/2001/REC-SVG-20010904/DTD/svg10.dtd">
<svg version="1.0" xmlns="http://www.w3.org/2000/svg"
 width="128.000000pt" height="128.000000pt" viewBox="0 0 128.000000 128.000000"
 preserveAspectRatio="xMidYMid meet">
<metadata>
Created by potrace 1.16, written by Peter Selinger 2001-2019
</metadata>
<g transform="translate(0.000000,128.000000) scale(0.100000,-0.100000)"
fill="#000000" stroke="none">
<path d="M225 1179 c-47 -16 -68 -18 -98 -11 -36 10 -37 9 -37 -18 0 -16 7
-30 16 -34 28 -11 98 -6 124 9 14 8 41 14 60 14 19 0 46 -6 60 -14 33 -19 82
-19 128 1 47 20 107 20 154 0 47 -20 84 -20 138 -1 53 19 97 19 130 0 14 -8
45 -14 70 -14 25 0 56 6 70 14 14 8 39 14 55 14 17 0 41 -6 55 -14 35 -20 40
-19 40 14 0 24 -6 31 -31 40 -44 15 -83 14 -144 -5 -48 -16 -56 -16 -100 0
-61 20 -95 20 -161 -1 -47 -14 -60 -15 -101 -3 -53 14 -128 16 -214 5 -40 -5
-68 -3 -102 9 -26 9 -49 16 -50 15 -1 0 -29 -9 -62 -20z"/>
</g>
</svg>
