<?xml version="1.0" standalone="no"?>
<!DOCTYPE svg PUBLIC "-//W3C//DTD SVG 20010904//EN"
 "http://www.w3.org/TR/2001/REC-SVG-20010904/DTD/svg10.dtd">
<svg version="1.0" xmlns="http://www.w3.org/2000/svg"
 width="128.000000pt" height="128.000000pt" viewBox="0 0 128.000000 128.000000"
 preserveAspectRatio="xMidYMid meet">
<metadata>
Created by potrace 1.16, written by Peter Selinger 2001-2019
</metadata>
<g transform="translate(0.000000,128.000000) scale(0.100000,-0.100000)"
fill="#000000" stroke="none">
<path d="M220 1184 c-28 -9 -61 -13 -87 -9 -38 6 -43 4 -43 -14 0 -31 56 -37
139 -15 66 16 72 16 124 0 52 -16 58 -16 126 0 68 17 76 17 144 0 67 -16 75
-16 144 0 69 17 76 17 126 1 63 -20 85 -20 152 -3 46 12 82 10 128 -9 16 -7
18 -4 15 16 -5 37 -79 52 -159 32 -55 -14 -65 -14 -125 3 -62 16 -68 16 -138
-1 -70 -17 -78 -18 -148 -2 -57 12 -84 14 -118 6 -41 -10 -66 -9 -195 5 -22 3
-60 -2 -85 -10z"/>
<path d="M235 1113 c-29 -9 -70 -13 -97 -10 -41 3 -48 1 -48 -13 0 -34 63 -40
145 -14 46 14 56 13 116 -2 62 -16 70 -16 134 0 64 16 72 16 141 0 69 -16 77
-16 142 -1 64 15 73 16 123 1 38 -11 68 -14 104 -9 72 11 146 11 173 2 18 -7
22 -5 22 12 0 28 -58 45 -124 36 -28 -4 -73 -7 -101 -6 -58 1 -196 1 -275 -1
-30 -1 -77 2 -103 7 -32 5 -72 4 -115 -5 -58 -11 -75 -10 -121 4 -63 19 -53
19 -116 -1z"/>
</g>
</svg>
