<?xml version="1.0" standalone="no"?>
<!DOCTYPE svg PUBLIC "-//W3C//DTD SVG 20010904//EN"
 "http://www.w3.org/TR/2001/REC-SVG-20010904/DTD/svg10.dtd">
<svg version="1.0" xmlns="http://www.w3.org/2000/svg"
 width="128.000000pt" height="128.000000pt" viewBox="0 0 128.000000 128.000000"
 preserveAspectRatio="xMidYMid meet">
<metadata>
Created by potrace 1.16, written by Peter Selinger 2001-2019
</metadata>
<g transform="translate(0.000000,128.000000) scale(0.100000,-0.100000)"
fill="#000000" stroke="none">
<path d="M537 1012 c-6 -69 -65 -200 -126 -279 -56 -73 -29 -66 44 11 56 59
62 63 83 52 19 -10 34 -8 90 10 37 12 100 26 140 30 68 6 72 6 66 -12 -22 -61
-154 -324 -164 -324 -6 0 -21 7 -33 14 -12 8 -39 22 -60 31 -36 15 -38 15 -28
-2 6 -10 35 -43 66 -73 31 -30 72 -78 91 -107 42 -64 53 -71 71 -48 26 37 16
75 -31 121 l-44 42 84 148 c47 82 99 166 115 186 23 30 28 42 20 56 -23 43
-37 45 -94 18 -41 -20 -81 -29 -170 -38 -64 -7 -119 -9 -123 -6 -3 4 15 43 40
88 25 45 46 88 46 96 0 13 -48 44 -68 44 -5 0 -12 -26 -15 -58z"/>
</g>
</svg>
