<?xml version="1.0" standalone="no"?>
<!DOCTYPE svg PUBLIC "-//W3C//DTD SVG 20010904//EN"
 "http://www.w3.org/TR/2001/REC-SVG-20010904/DTD/svg10.dtd">
<svg version="1.0" xmlns="http://www.w3.org/2000/svg"
 width="128.000000pt" height="128.000000pt" viewBox="0 0 128.000000 128.000000"
 preserveAspectRatio="xMidYMid meet">
<metadata>
Created by potrace 1.16, written by Peter Selinger 2001-2019
</metadata>
<g transform="translate(0.000000,128.000000) scale(0.100000,-0.100000)"
fill="#000000" stroke="none">
<path d="M591 933 c-22 -133 -16 -123 -72 -123 -27 0 -49 -4 -49 -9 0 -5 -3
-16 -6 -25 -5 -13 2 -16 45 -16 28 0 51 -4 51 -10 0 -5 -5 -43 -11 -85 l-11
-75 -44 0 c-33 0 -46 -5 -54 -19 -18 -34 -12 -41 39 -41 l49 0 -14 -72 c-8
-40 -16 -85 -20 -101 -5 -25 -3 -27 24 -27 29 0 29 0 47 100 l18 100 49 0 c45
0 48 -2 43 -22 -10 -48 -25 -142 -25 -160 0 -12 7 -18 24 -18 27 0 28 3 47
123 l12 77 52 0 c39 0 54 4 59 16 14 37 7 44 -48 44 l-53 0 13 83 c8 45 14 83
14 84 0 1 24 3 53 5 45 3 52 6 55 26 3 20 0 22 -47 22 -28 0 -51 4 -51 9 0 5
7 45 15 88 19 99 20 95 -12 91 -26 -3 -29 -8 -40 -73 -22 -122 -18 -115 -68
-115 -31 0 -45 4 -45 13 0 14 16 114 25 155 5 19 1 22 -24 22 -28 0 -29 -2
-40 -67z m119 -183 c0 -5 -5 -43 -11 -85 l-11 -75 -48 0 -47 0 9 63 c16 111
13 107 63 107 25 0 45 -4 45 -10z"/>
</g>
</svg>
