<?xml version="1.0" standalone="no"?>
<!DOCTYPE svg PUBLIC "-//W3C//DTD SVG 20010904//EN"
 "http://www.w3.org/TR/2001/REC-SVG-20010904/DTD/svg10.dtd">
<svg version="1.0" xmlns="http://www.w3.org/2000/svg"
 width="128.000000pt" height="128.000000pt" viewBox="0 0 128.000000 128.000000"
 preserveAspectRatio="xMidYMid meet">
<metadata>
Created by potrace 1.16, written by Peter Selinger 2001-2019
</metadata>
<g transform="translate(0.000000,128.000000) scale(0.100000,-0.100000)"
fill="#000000" stroke="none">
<path d="M520 966 c0 -24 -3 -64 -6 -90 l-7 -46 -53 0 -54 0 0 -40 0 -40 53 0
52 0 -9 -110 -9 -110 -44 0 -43 0 0 -40 0 -40 41 0 40 0 -7 -95 c-7 -93 -6
-95 15 -95 19 0 21 6 21 49 0 26 3 69 6 95 l7 46 97 0 97 0 -4 -52 c-2 -29 -5
-72 -7 -95 -3 -36 -1 -43 14 -43 21 0 30 37 30 126 l0 64 60 0 60 0 0 40 0 40
-56 0 -56 0 6 48 c3 26 8 75 12 110 l6 62 44 0 44 0 0 40 0 40 -41 0 -42 0 6
90 c5 82 4 90 -12 90 -20 0 -31 -50 -31 -136 l0 -44 -101 0 -101 0 8 90 c6 87
6 90 -15 90 -18 0 -21 -6 -21 -44z m216 -293 c-4 -43 -10 -93 -13 -110 l-5
-33 -100 0 c-90 0 -99 2 -94 18 3 9 8 59 12 110 l7 92 99 0 100 0 -6 -77z"/>
</g>
</svg>
