<?xml version="1.0" standalone="no"?>
<!DOCTYPE svg PUBLIC "-//W3C//DTD SVG 20010904//EN"
 "http://www.w3.org/TR/2001/REC-SVG-20010904/DTD/svg10.dtd">
<svg version="1.0" xmlns="http://www.w3.org/2000/svg"
 width="128.000000pt" height="128.000000pt" viewBox="0 0 128.000000 128.000000"
 preserveAspectRatio="xMidYMid meet">
<metadata>
Created by potrace 1.16, written by Peter Selinger 2001-2019
</metadata>
<g transform="translate(0.000000,128.000000) scale(0.100000,-0.100000)"
fill="#000000" stroke="none">
<path d="M610 881 c0 -13 -12 -22 -45 -31 -88 -25 -135 -85 -115 -145 15 -44
48 -70 110 -86 l50 -13 0 -106 0 -107 -36 6 c-35 6 -46 16 -58 54 -8 24 -53
22 -66 -4 -23 -43 43 -89 129 -89 29 0 31 -2 31 -35 0 -31 3 -35 25 -35 22 0
25 4 25 35 0 30 3 35 23 35 30 1 98 33 120 57 40 46 38 114 -4 159 -13 14 -49
34 -81 45 l-58 22 0 88 c0 80 2 89 19 89 23 0 38 -17 43 -49 7 -53 70 -52 76
1 4 32 -35 64 -95 81 -30 8 -43 16 -43 29 0 13 -8 18 -25 18 -18 0 -25 -5 -25
-19z m0 -146 c0 -47 -2 -85 -5 -85 -26 0 -77 34 -86 56 -18 48 25 114 73 114
16 0 18 -10 18 -85z m100 -172 c42 -35 54 -68 39 -105 -11 -27 -54 -58 -79
-58 -6 0 -10 35 -10 95 0 52 4 95 9 95 5 0 24 -12 41 -27z"/>
</g>
</svg>
