<?xml version="1.0" standalone="no"?>
<!DOCTYPE svg PUBLIC "-//W3C//DTD SVG 20010904//EN"
 "http://www.w3.org/TR/2001/REC-SVG-20010904/DTD/svg10.dtd">
<svg version="1.0" xmlns="http://www.w3.org/2000/svg"
 width="128.000000pt" height="128.000000pt" viewBox="0 0 128.000000 128.000000"
 preserveAspectRatio="xMidYMid meet">
<metadata>
Created by potrace 1.16, written by Peter Selinger 2001-2019
</metadata>
<g transform="translate(0.000000,128.000000) scale(0.100000,-0.100000)"
fill="#000000" stroke="none">
<path d="M620 1053 c0 -35 -3 -39 -45 -56 -54 -23 -114 -87 -117 -125 -4 -82
20 -129 103 -196 l59 -48 0 -160 0 -161 -32 7 c-72 14 -95 51 -63 100 33 50
-12 104 -63 77 -42 -22 -36 -98 11 -150 26 -28 92 -60 125 -61 20 0 22 -5 22
-55 0 -48 2 -55 20 -55 18 0 20 7 20 54 0 51 2 55 30 65 110 38 159 152 111
258 -11 22 -47 68 -80 101 l-61 59 0 136 c0 151 6 162 55 112 29 -29 31 -43 8
-83 -14 -25 -15 -32 -4 -46 18 -21 54 -20 74 2 47 52 -5 152 -89 174 -42 12
-44 14 -44 50 0 31 -4 38 -20 38 -16 0 -20 -7 -20 -37z m0 -198 c0 -120 -1
-125 -19 -116 -28 15 -70 69 -77 98 -11 44 8 95 45 120 19 13 38 23 42 23 5 0
9 -56 9 -125z m117 -339 c39 -75 3 -195 -59 -196 -16 0 -18 13 -18 142 l0 142
31 -30 c17 -16 38 -42 46 -58z"/>
</g>
</svg>
