<?xml version="1.0" standalone="no"?>
<!DOCTYPE svg PUBLIC "-//W3C//DTD SVG 20010904//EN"
 "http://www.w3.org/TR/2001/REC-SVG-20010904/DTD/svg10.dtd">
<svg version="1.0" xmlns="http://www.w3.org/2000/svg"
 width="128.000000pt" height="128.000000pt" viewBox="0 0 128.000000 128.000000"
 preserveAspectRatio="xMidYMid meet">
<metadata>
Created by potrace 1.16, written by Peter Selinger 2001-2019
</metadata>
<g transform="translate(0.000000,128.000000) scale(0.100000,-0.100000)"
fill="#000000" stroke="none">
<path d="M582 913 c-53 -26 -65 -53 -59 -126 3 -34 8 -73 11 -87 5 -21 -2 -31
-43 -62 -93 -70 -116 -172 -52 -230 29 -26 87 -48 126 -48 27 0 97 33 113 53
13 15 17 14 50 -12 47 -36 78 -44 112 -26 29 15 69 80 56 92 -4 4 -12 0 -17
-9 -21 -38 -48 -41 -90 -13 -22 14 -39 31 -37 38 2 7 22 49 46 95 27 53 51 87
67 94 42 19 28 28 -40 28 -37 0 -65 -4 -65 -10 0 -5 6 -10 14 -10 30 0 27 -23
-9 -96 l-36 -75 -18 23 c-10 13 -32 50 -49 84 l-31 61 39 17 c104 46 119 175
27 219 -44 21 -73 21 -115 0z m97 -66 c19 -50 2 -113 -35 -129 -31 -14 -39 -5
-55 70 -17 72 -2 105 43 100 27 -2 35 -9 47 -41z m-87 -259 c15 -29 38 -72 53
-95 l25 -41 -26 -21 c-38 -30 -89 -28 -119 5 -27 29 -41 81 -31 118 6 25 52
86 65 86 4 0 19 -24 33 -52z"/>
</g>
</svg>
