<?xml version="1.0" standalone="no"?>
<!DOCTYPE svg PUBLIC "-//W3C//DTD SVG 20010904//EN"
 "http://www.w3.org/TR/2001/REC-SVG-20010904/DTD/svg10.dtd">
<svg version="1.0" xmlns="http://www.w3.org/2000/svg"
 width="128.000000pt" height="128.000000pt" viewBox="0 0 128.000000 128.000000"
 preserveAspectRatio="xMidYMid meet">
<metadata>
Created by potrace 1.16, written by Peter Selinger 2001-2019
</metadata>
<g transform="translate(0.000000,128.000000) scale(0.100000,-0.100000)"
fill="#000000" stroke="none">
<path d="M523 990 c-18 -10 -39 -33 -48 -50 -19 -37 -21 -136 -5 -216 l11 -54
-40 -47 c-72 -81 -87 -182 -41 -273 49 -96 163 -116 249 -44 l28 24 19 -21
c25 -28 67 -49 98 -49 35 0 85 48 92 88 8 41 -5 41 -31 -1 -28 -44 -56 -46
-101 -4 l-38 34 21 64 c12 35 26 91 33 124 14 70 24 85 56 85 15 0 24 6 24 15
0 12 -17 15 -90 15 -71 0 -90 -3 -90 -14 0 -9 12 -16 28 -18 27 -3 27 -4 27
-78 0 -72 -18 -140 -36 -140 -15 0 -76 101 -106 174 -27 66 -27 69 -9 80 78
46 116 108 116 190 0 67 -15 103 -51 122 -38 19 -78 18 -116 -6z m91 -26 c12
-11 16 -35 16 -85 0 -77 -22 -136 -62 -163 -22 -16 -23 -15 -36 21 -17 49 -26
144 -18 177 14 56 68 83 100 50z m-12 -540 c25 -37 44 -73 41 -80 -14 -38
-116 -42 -156 -7 -60 54 -64 220 -5 290 8 10 18 -3 43 -61 18 -41 53 -105 77
-142z"/>
</g>
</svg>
