<?xml version="1.0" standalone="no"?>
<!DOCTYPE svg PUBLIC "-//W3C//DTD SVG 20010904//EN"
 "http://www.w3.org/TR/2001/REC-SVG-20010904/DTD/svg10.dtd">
<svg version="1.0" xmlns="http://www.w3.org/2000/svg"
 width="128.000000pt" height="128.000000pt" viewBox="0 0 128.000000 128.000000"
 preserveAspectRatio="xMidYMid meet">
<metadata>
Created by potrace 1.16, written by Peter Selinger 2001-2019
</metadata>
<g transform="translate(0.000000,128.000000) scale(0.100000,-0.100000)"
fill="#000000" stroke="none">
<path d="M770 923 c-63 -24 -68 -25 -155 -13 -117 16 -157 14 -204 -10 -90
-45 -142 -179 -91 -230 25 -25 126 -28 169 -6 62 32 121 124 121 187 l0 32 48
-6 c26 -4 64 -3 84 2 28 7 36 6 31 -3 -4 -6 -87 -129 -185 -273 -98 -144 -178
-264 -178 -267 0 -3 10 -6 23 -6 18 0 56 52 202 268 99 146 193 281 208 299
27 31 29 54 4 52 -7 0 -41 -12 -77 -26z m-219 -54 c24 -24 21 -52 -17 -117
-41 -69 -140 -107 -164 -61 -9 15 -8 31 4 66 38 111 124 165 177 112z"/>
<path d="M805 591 c-48 -21 -90 -69 -117 -129 -21 -47 -17 -72 15 -102 25 -24
101 -27 150 -6 59 24 127 122 127 183 0 13 -11 35 -25 48 -30 31 -91 33 -150
6z m119 -27 c23 -23 19 -53 -15 -112 -44 -78 -125 -118 -159 -77 -28 34 33
151 97 184 47 25 57 25 77 5z"/>
</g>
</svg>
