<?xml version="1.0" standalone="no"?>
<!DOCTYPE svg PUBLIC "-//W3C//DTD SVG 20010904//EN"
 "http://www.w3.org/TR/2001/REC-SVG-20010904/DTD/svg10.dtd">
<svg version="1.0" xmlns="http://www.w3.org/2000/svg"
 width="128.000000pt" height="128.000000pt" viewBox="0 0 128.000000 128.000000"
 preserveAspectRatio="xMidYMid meet">
<metadata>
Created by potrace 1.16, written by Peter Selinger 2001-2019
</metadata>
<g transform="translate(0.000000,128.000000) scale(0.100000,-0.100000)"
fill="#000000" stroke="none">
<path d="M425 975 c-72 -76 -71 -251 0 -322 50 -50 125 -38 155 24 22 47 25
196 5 248 -34 89 -103 111 -160 50z m101 -16 c16 -18 19 -37 19 -138 0 -96 -3
-122 -18 -145 -25 -37 -57 -32 -80 14 -25 48 -21 222 6 263 21 32 47 35 73 6z"/>
<path d="M612 643 c-100 -241 -149 -370 -142 -377 5 -5 11 -8 14 -5 14 16 306
731 301 739 -3 6 -10 10 -14 10 -4 0 -76 -165 -159 -367z"/>
<path d="M722 644 c-12 -8 -32 -34 -44 -57 -32 -60 -32 -194 0 -254 51 -98
138 -98 183 1 21 46 26 167 9 228 -23 80 -94 120 -148 82z m88 -49 c23 -46 21
-242 -3 -279 -25 -37 -57 -32 -80 14 -25 49 -21 232 6 274 24 35 57 32 77 -9z"/>
</g>
</svg>
