<?xml version="1.0" standalone="no"?>
<!DOCTYPE svg PUBLIC "-//W3C//DTD SVG 20010904//EN"
 "http://www.w3.org/TR/2001/REC-SVG-20010904/DTD/svg10.dtd">
<svg version="1.0" xmlns="http://www.w3.org/2000/svg"
 width="128.000000pt" height="128.000000pt" viewBox="0 0 128.000000 128.000000"
 preserveAspectRatio="xMidYMid meet">
<metadata>
Created by potrace 1.16, written by Peter Selinger 2001-2019
</metadata>
<g transform="translate(0.000000,128.000000) scale(0.100000,-0.100000)"
fill="#000000" stroke="none">
<path d="M606 891 c-16 -17 -16 -25 -1 -121 9 -56 14 -104 11 -107 -3 -3 -35
22 -71 55 -36 34 -77 65 -90 68 -50 13 -75 -41 -33 -71 13 -8 60 -29 106 -47
45 -17 81 -32 80 -34 -2 -1 -39 -16 -83 -34 -105 -41 -125 -55 -125 -85 0 -18
7 -26 24 -31 32 -8 59 8 129 74 31 30 60 52 63 49 4 -3 -1 -46 -11 -95 -19
-100 -18 -130 7 -146 26 -16 52 4 56 41 2 17 -4 70 -12 119 -9 48 -15 89 -13
90 1 1 38 -29 81 -67 57 -50 87 -69 107 -69 32 0 46 28 30 59 -9 16 -97 56
-191 86 l-25 8 30 12 c17 7 63 24 103 40 78 29 100 52 82 85 -20 37 -55 24
-137 -49 -43 -38 -79 -68 -80 -67 -2 2 6 49 18 106 16 79 18 108 10 126 -13
29 -42 31 -65 5z"/>
</g>
</svg>
