<?xml version="1.0" standalone="no"?>
<!DOCTYPE svg PUBLIC "-//W3C//DTD SVG 20010904//EN"
 "http://www.w3.org/TR/2001/REC-SVG-20010904/DTD/svg10.dtd">
<svg version="1.0" xmlns="http://www.w3.org/2000/svg"
 width="128.000000pt" height="128.000000pt" viewBox="0 0 128.000000 128.000000"
 preserveAspectRatio="xMidYMid meet">
<metadata>
Created by potrace 1.16, written by Peter Selinger 2001-2019
</metadata>
<g transform="translate(0.000000,128.000000) scale(0.100000,-0.100000)"
fill="#000000" stroke="none">
<path d="M610 905 c-12 -14 -10 -58 7 -124 5 -21 1 -20 -47 18 -60 48 -95 52
-95 11 0 -25 27 -44 99 -70 l31 -11 -65 -32 c-54 -27 -65 -37 -65 -57 0 -43
43 -38 98 11 l48 41 -8 -43 c-12 -71 -9 -101 9 -113 13 -8 23 -8 36 0 19 12
21 42 8 113 l-8 45 52 -42 c54 -43 66 -48 88 -33 28 17 7 46 -55 76 -34 17
-62 33 -62 36 -1 3 26 17 59 32 63 27 80 48 60 72 -19 23 -35 18 -86 -25 -25
-23 -48 -39 -51 -37 -2 3 0 29 5 58 11 60 2 89 -27 89 -10 0 -24 -7 -31 -15z"/>
</g>
</svg>
