<?xml version="1.0" standalone="no"?>
<!DOCTYPE svg PUBLIC "-//W3C//DTD SVG 20010904//EN"
 "http://www.w3.org/TR/2001/REC-SVG-20010904/DTD/svg10.dtd">
<svg version="1.0" xmlns="http://www.w3.org/2000/svg"
 width="128.000000pt" height="128.000000pt" viewBox="0 0 128.000000 128.000000"
 preserveAspectRatio="xMidYMid meet">
<metadata>
Created by potrace 1.16, written by Peter Selinger 2001-2019
</metadata>
<g transform="translate(0.000000,128.000000) scale(0.100000,-0.100000)"
fill="#000000" stroke="none">
<path d="M610 710 l0 -79 -82 -3 c-82 -3 -83 -3 -86 -30 l-3 -27 83 -3 83 -3
3 -82 3 -83 29 0 29 0 3 83 3 82 83 3 83 3 -3 27 c-3 27 -4 27 -85 30 l-83 3
0 79 0 80 -30 0 -30 0 0 -80z"/>
</g>
</svg>
