<?xml version="1.0" standalone="no"?>
<!DOCTYPE svg PUBLIC "-//W3C//DTD SVG 20010904//EN"
 "http://www.w3.org/TR/2001/REC-SVG-20010904/DTD/svg10.dtd">
<svg version="1.0" xmlns="http://www.w3.org/2000/svg"
 width="128.000000pt" height="128.000000pt" viewBox="0 0 128.000000 128.000000"
 preserveAspectRatio="xMidYMid meet">
<metadata>
Created by potrace 1.16, written by Peter Selinger 2001-2019
</metadata>
<g transform="translate(0.000000,128.000000) scale(0.100000,-0.100000)"
fill="#000000" stroke="none">
<path d="M620 775 l0 -125 -105 0 c-87 0 -105 -3 -105 -15 0 -12 18 -15 105
-15 l105 0 0 -125 c0 -118 1 -125 20 -125 19 0 20 7 20 125 l0 125 110 0 c91
0 110 3 110 15 0 12 -19 15 -110 15 l-110 0 0 125 c0 118 -1 125 -20 125 -19
0 -20 -7 -20 -125z"/>
</g>
</svg>
