<?xml version="1.0" standalone="no"?>
<!DOCTYPE svg PUBLIC "-//W3C//DTD SVG 20010904//EN"
 "http://www.w3.org/TR/2001/REC-SVG-20010904/DTD/svg10.dtd">
<svg version="1.0" xmlns="http://www.w3.org/2000/svg"
 width="128.000000pt" height="128.000000pt" viewBox="0 0 128.000000 128.000000"
 preserveAspectRatio="xMidYMid meet">
<metadata>
Created by potrace 1.16, written by Peter Selinger 2001-2019
</metadata>
<g transform="translate(0.000000,128.000000) scale(0.100000,-0.100000)"
fill="#000000" stroke="none">
<path d="M352 837 l-192 -192 195 -195 c157 -157 195 -191 201 -176 5 14 -32
57 -170 195 l-176 176 175 175 c96 96 175 180 175 187 0 6 -4 14 -8 17 -5 3
-95 -82 -200 -187z"/>
<path d="M680 580 l0 -40 140 0 140 0 0 40 0 40 -140 0 -140 0 0 -40z"/>
</g>
</svg>
