<?xml version="1.0" standalone="no"?>
<!DOCTYPE svg PUBLIC "-//W3C//DTD SVG 20010904//EN"
 "http://www.w3.org/TR/2001/REC-SVG-20010904/DTD/svg10.dtd">
<svg version="1.0" xmlns="http://www.w3.org/2000/svg"
 width="128.000000pt" height="128.000000pt" viewBox="0 0 128.000000 128.000000"
 preserveAspectRatio="xMidYMid meet">
<metadata>
Created by potrace 1.16, written by Peter Selinger 2001-2019
</metadata>
<g transform="translate(0.000000,128.000000) scale(0.100000,-0.100000)"
fill="#000000" stroke="none">
<path d="M477 1184 c-28 -15 -81 -109 -71 -126 10 -16 22 -7 27 21 8 40 54 91
82 91 15 0 46 -24 91 -71 98 -100 133 -116 194 -84 29 15 70 79 70 110 0 27
-16 16 -29 -21 -16 -45 -45 -74 -73 -74 -14 0 -53 31 -109 85 -94 92 -120 102
-182 69z"/>
</g>
</svg>
