<?xml version="1.0" standalone="no"?>
<!DOCTYPE svg PUBLIC "-//W3C//DTD SVG 20010904//EN"
 "http://www.w3.org/TR/2001/REC-SVG-20010904/DTD/svg10.dtd">
<svg version="1.0" xmlns="http://www.w3.org/2000/svg"
 width="128.000000pt" height="128.000000pt" viewBox="0 0 128.000000 128.000000"
 preserveAspectRatio="xMidYMid meet">
<metadata>
Created by potrace 1.16, written by Peter Selinger 2001-2019
</metadata>
<g transform="translate(0.000000,128.000000) scale(0.100000,-0.100000)"
fill="#000000" stroke="none">
<path d="M200 1180 l0 -31 113 3 112 3 0 25 0 25 -112 3 -113 3 0 -31z"/>
<path d="M510 1180 l0 -30 110 0 110 0 0 30 0 30 -110 0 -110 0 0 -30z"/>
<path d="M837 1203 c-4 -3 -7 -17 -7 -30 0 -23 1 -23 115 -23 l115 0 0 30 0
30 -108 0 c-60 0 -112 -3 -115 -7z"/>
</g>
</svg>
