<?xml version="1.0" standalone="no"?>
<!DOCTYPE svg PUBLIC "-//W3C//DTD SVG 20010904//EN"
 "http://www.w3.org/TR/2001/REC-SVG-20010904/DTD/svg10.dtd">
<svg version="1.0" xmlns="http://www.w3.org/2000/svg"
 width="128.000000pt" height="128.000000pt" viewBox="0 0 128.000000 128.000000"
 preserveAspectRatio="xMidYMid meet">
<metadata>
Created by potrace 1.16, written by Peter Selinger 2001-2019
</metadata>
<g transform="translate(0.000000,128.000000) scale(0.100000,-0.100000)"
fill="#000000" stroke="none">
<path d="M611 1194 c-37 -26 -21 -74 25 -74 28 0 46 23 42 51 -4 30 -40 42
-67 23z"/>
<path d="M210 1170 l0 -30 155 0 155 0 0 30 0 30 -155 0 -155 0 0 -30z"/>
<path d="M760 1170 l0 -30 155 0 155 0 0 30 0 30 -155 0 -155 0 0 -30z"/>
</g>
</svg>
