<?xml version="1.0" standalone="no"?>
<!DOCTYPE svg PUBLIC "-//W3C//DTD SVG 20010904//EN"
 "http://www.w3.org/TR/2001/REC-SVG-20010904/DTD/svg10.dtd">
<svg version="1.0" xmlns="http://www.w3.org/2000/svg"
 width="128.000000pt" height="128.000000pt" viewBox="0 0 128.000000 128.000000"
 preserveAspectRatio="xMidYMid meet">
<metadata>
Created by potrace 1.16, written by Peter Selinger 2001-2019
</metadata>
<g transform="translate(0.000000,128.000000) scale(0.100000,-0.100000)"
fill="#000000" stroke="none">
<path d="M930 1022 c-152 -113 -229 -278 -202 -436 16 -98 51 -166 125 -239
66 -66 152 -125 165 -112 4 4 -11 21 -33 38 -68 52 -135 129 -163 187 -25 51
-27 64 -27 185 0 128 1 132 34 200 25 51 56 91 114 148 43 42 73 77 65 77 -7
0 -42 -22 -78 -48z"/>
</g>
</svg>
