<?xml version="1.0" standalone="no"?>
<!DOCTYPE svg PUBLIC "-//W3C//DTD SVG 20010904//EN"
 "http://www.w3.org/TR/2001/REC-SVG-20010904/DTD/svg10.dtd">
<svg version="1.0" xmlns="http://www.w3.org/2000/svg"
 width="128.000000pt" height="128.000000pt" viewBox="0 0 128.000000 128.000000"
 preserveAspectRatio="xMidYMid meet">
<metadata>
Created by potrace 1.16, written by Peter Selinger 2001-2019
</metadata>
<g transform="translate(0.000000,128.000000) scale(0.100000,-0.100000)"
fill="#000000" stroke="none">
<path d="M679 983 c-54 -8 -70 -41 -83 -170 -13 -118 -31 -175 -61 -186 -20
-8 -20 -27 0 -27 31 0 55 -78 55 -177 0 -109 9 -136 52 -163 38 -23 133 -29
126 -7 -3 6 -14 13 -26 15 -11 2 -31 14 -45 28 -20 20 -25 38 -31 106 -9 106
-21 151 -50 185 -23 27 -24 28 -6 53 24 34 48 119 56 197 8 73 30 108 74 118
17 4 30 13 30 21 0 14 -30 16 -91 7z"/>
</g>
</svg>
