<?xml version="1.0" standalone="no"?>
<!DOCTYPE svg PUBLIC "-//W3C//DTD SVG 20010904//EN"
 "http://www.w3.org/TR/2001/REC-SVG-20010904/DTD/svg10.dtd">
<svg version="1.0" xmlns="http://www.w3.org/2000/svg"
 width="128.000000pt" height="128.000000pt" viewBox="0 0 128.000000 128.000000"
 preserveAspectRatio="xMidYMid meet">
<metadata>
Created by potrace 1.16, written by Peter Selinger 2001-2019
</metadata>
<g transform="translate(0.000000,128.000000) scale(0.100000,-0.100000)"
fill="#000000" stroke="none">
<path d="M516 981 c-4 -6 10 -19 32 -30 56 -29 63 -42 68 -128 7 -115 12 -137
38 -176 l24 -35 -24 -49 c-16 -31 -28 -80 -34 -138 -12 -101 -29 -135 -79
-149 -44 -13 -40 -36 7 -36 90 0 130 50 131 162 1 91 20 159 52 189 l29 27
-26 16 c-35 23 -41 46 -48 171 -8 144 -22 166 -117 180 -29 4 -49 3 -53 -4z"/>
</g>
</svg>
