<?xml version="1.0" standalone="no"?>
<!DOCTYPE svg PUBLIC "-//W3C//DTD SVG 20010904//EN"
 "http://www.w3.org/TR/2001/REC-SVG-20010904/DTD/svg10.dtd">
<svg version="1.0" xmlns="http://www.w3.org/2000/svg"
 width="128.000000pt" height="128.000000pt" viewBox="0 0 128.000000 128.000000"
 preserveAspectRatio="xMidYMid meet">
<metadata>
Created by potrace 1.16, written by Peter Selinger 2001-2019
</metadata>
<g transform="translate(0.000000,128.000000) scale(0.100000,-0.100000)"
fill="#000000" stroke="none">
<path d="M760 650 l0 -470 60 0 60 0 0 405 0 405 75 0 75 0 0 65 0 65 -135 0
-135 0 0 -470z m230 405 c0 -24 -2 -25 -75 -25 l-75 0 0 -400 c0 -393 0 -400
-20 -400 -20 0 -20 7 -20 425 l0 425 95 0 c95 0 95 0 95 -25z"/>
</g>
</svg>
