<?xml version="1.0" standalone="no"?>
<!DOCTYPE svg PUBLIC "-//W3C//DTD SVG 20010904//EN"
 "http://www.w3.org/TR/2001/REC-SVG-20010904/DTD/svg10.dtd">
<svg version="1.0" xmlns="http://www.w3.org/2000/svg"
 width="128.000000pt" height="128.000000pt" viewBox="0 0 128.000000 128.000000"
 preserveAspectRatio="xMidYMid meet">
<metadata>
Created by potrace 1.16, written by Peter Selinger 2001-2019
</metadata>
<g transform="translate(0.000000,128.000000) scale(0.100000,-0.100000)"
fill="#000000" stroke="none">
<path d="M390 720 l0 -399 -72 -3 -73 -3 0 -65 0 -65 135 0 135 0 3 468 2 467
-65 0 -65 0 0 -400z m80 -65 l0 -425 -90 0 c-83 0 -90 1 -90 20 0 18 7 20 70
20 l70 0 0 405 c0 398 0 405 20 405 20 0 20 -7 20 -425z"/>
</g>
</svg>
