<?xml version="1.0" standalone="no"?>
<!DOCTYPE svg PUBLIC "-//W3C//DTD SVG 20010904//EN"
 "http://www.w3.org/TR/2001/REC-SVG-20010904/DTD/svg10.dtd">
<svg version="1.0" xmlns="http://www.w3.org/2000/svg"
 width="128.000000pt" height="128.000000pt" viewBox="0 0 128.000000 128.000000"
 preserveAspectRatio="xMidYMid meet">
<metadata>
Created by potrace 1.16, written by Peter Selinger 2001-2019
</metadata>
<g transform="translate(0.000000,128.000000) scale(0.100000,-0.100000)"
fill="#000000" stroke="none">
<path d="M289 1043 c106 -115 181 -273 181 -383 0 -119 -90 -297 -214 -422
l-37 -38 221 0 220 0 0 460 0 460 -221 0 -221 0 71 -77z m331 -383 l0 -420
-150 0 -149 0 50 66 c184 243 184 465 0 708 l-50 66 149 0 150 0 0 -420z"/>
</g>
</svg>
