<?xml version="1.0" standalone="no"?>
<!DOCTYPE svg PUBLIC "-//W3C//DTD SVG 20010904//EN"
 "http://www.w3.org/TR/2001/REC-SVG-20010904/DTD/svg10.dtd">
<svg version="1.0" xmlns="http://www.w3.org/2000/svg"
 width="128.000000pt" height="128.000000pt" viewBox="0 0 128.000000 128.000000"
 preserveAspectRatio="xMidYMid meet">
<metadata>
Created by potrace 1.16, written by Peter Selinger 2001-2019
</metadata>
<g transform="translate(0.000000,128.000000) scale(0.100000,-0.100000)"
fill="#000000" stroke="none">
<path d="M799 878 l-111 -223 103 -222 c96 -207 121 -246 135 -209 3 7 -38
105 -90 216 -53 112 -96 208 -96 214 0 6 48 104 106 219 58 114 102 212 99
217 -19 30 -42 -4 -146 -212z"/>
<path d="M936 876 l-107 -224 104 -218 c58 -120 108 -219 113 -221 5 -1 15 1
22 6 10 6 -10 57 -87 219 -56 116 -101 213 -101 217 0 4 45 101 101 217 97
204 104 227 68 228 -3 0 -54 -101 -113 -224z"/>
</g>
</svg>
