<?xml version="1.0" standalone="no"?>
<!DOCTYPE svg PUBLIC "-//W3C//DTD SVG 20010904//EN"
 "http://www.w3.org/TR/2001/REC-SVG-20010904/DTD/svg10.dtd">
<svg version="1.0" xmlns="http://www.w3.org/2000/svg"
 width="128.000000pt" height="128.000000pt" viewBox="0 0 128.000000 128.000000"
 preserveAspectRatio="xMidYMid meet">
<metadata>
Created by potrace 1.16, written by Peter Selinger 2001-2019
</metadata>
<g transform="translate(0.000000,128.000000) scale(0.100000,-0.100000)"
fill="#000000" stroke="none">
<path d="M367 1088 c-17 -13 -12 -27 82 -225 l101 -212 -100 -212 c-55 -116
-97 -216 -94 -221 17 -27 44 16 138 217 l103 220 -60 125 c-32 69 -80 169
-106 223 -42 90 -47 97 -64 85z"/>
<path d="M204 1077 c-2 -7 38 -104 91 -214 52 -111 95 -206 95 -212 0 -6 -43
-102 -95 -213 -53 -111 -93 -208 -91 -215 13 -32 36 -4 88 110 31 67 77 167
103 222 l46 101 -102 217 c-95 202 -121 240 -135 204z"/>
</g>
</svg>
