<?xml version="1.0" standalone="no"?>
<!DOCTYPE svg PUBLIC "-//W3C//DTD SVG 20010904//EN"
 "http://www.w3.org/TR/2001/REC-SVG-20010904/DTD/svg10.dtd">
<svg version="1.0" xmlns="http://www.w3.org/2000/svg"
 width="128.000000pt" height="128.000000pt" viewBox="0 0 128.000000 128.000000"
 preserveAspectRatio="xMidYMid meet">
<metadata>
Created by potrace 1.16, written by Peter Selinger 2001-2019
</metadata>
<g transform="translate(0.000000,128.000000) scale(0.100000,-0.100000)"
fill="#000000" stroke="none">
<path d="M751 1123 c-51 -25 -61 -61 -61 -215 0 -172 -9 -205 -61 -227 -47
-19 -50 -37 -9 -46 56 -12 64 -40 70 -225 4 -109 10 -173 18 -188 23 -40 122
-70 122 -37 0 8 -9 15 -19 15 -11 0 -33 11 -48 24 l-28 24 -6 165 c-6 181 -14
207 -70 231 l-29 12 33 12 c54 20 60 40 65 212 2 85 8 167 13 181 10 26 45 49
74 49 8 0 15 7 15 15 0 20 -36 19 -79 -2z"/>
</g>
</svg>
