<?xml version="1.0" standalone="no"?>
<!DOCTYPE svg PUBLIC "-//W3C//DTD SVG 20010904//EN"
 "http://www.w3.org/TR/2001/REC-SVG-20010904/DTD/svg10.dtd">
<svg version="1.0" xmlns="http://www.w3.org/2000/svg"
 width="90.000000pt" height="180.000000pt" viewBox="0 0 90.000000 180.000000"
 preserveAspectRatio="xMidYMid meet">
<metadata>
Created by potrace 1.13, written by Peter Selinger 2001-2015
</metadata>
<g transform="translate(0.000000,180.000000) scale(0.100000,-0.100000)"
fill="#000000" stroke="none">
<path d="M216 1128 c-29 -41 -15 -88 27 -88 10 0 32 -13 48 -29 34 -34 37 -72
13 -129 -21 -51 -56 -231 -48 -254 9 -28 50 -41 82 -25 33 15 54 71 41 106 -6
14 -5 37 1 60 5 20 10 63 10 97 0 54 3 65 33 98 27 31 41 38 92 46 39 6 72 6
98 -1 68 -18 110 7 87 52 -14 24 -51 34 -125 33 -81 -2 -142 -20 -171 -51 -13
-14 -26 -24 -28 -22 -1 2 -15 27 -30 55 -39 73 -99 96 -130 52z"/>
</g>
</svg>
