<?xml version="1.0" standalone="no"?>
<!DOCTYPE svg PUBLIC "-//W3C//DTD SVG 20010904//EN"
 "http://www.w3.org/TR/2001/REC-SVG-20010904/DTD/svg10.dtd">
<svg version="1.0" xmlns="http://www.w3.org/2000/svg"
 width="90.000000pt" height="180.000000pt" viewBox="0 0 90.000000 180.000000"
 preserveAspectRatio="xMidYMid meet">
<metadata>
Created by potrace 1.13, written by Peter Selinger 2001-2015
</metadata>
<g transform="translate(0.000000,180.000000) scale(0.100000,-0.100000)"
fill="#000000" stroke="none">
<path d="M160 1327 c-52 -26 -27 -97 35 -97 18 0 36 4 39 9 11 17 120 20 177
4 55 -15 79 -38 79 -77 0 -24 -93 -106 -132 -116 -43 -12 -59 -35 -47 -67 7
-20 16 -23 63 -23 30 0 81 7 113 15 85 22 143 4 143 -44 0 -38 -70 -139 -143
-207 -71 -66 -79 -71 -193 -107 -65 -22 -129 -45 -142 -54 -30 -18 -26 -53 9
-72 23 -13 28 -12 55 7 16 11 57 30 91 41 64 22 87 36 214 132 99 75 122 102
159 181 35 75 35 111 -3 146 -30 28 -66 41 -127 43 -28 2 -53 5 -54 8 -2 3 13
20 34 36 57 45 65 68 40 120 -11 24 -37 54 -58 68 -73 51 -292 85 -352 54z"/>
</g>
</svg>
