<?xml version="1.0" standalone="no"?>
<!DOCTYPE svg PUBLIC "-//W3C//DTD SVG 20010904//EN"
 "http://www.w3.org/TR/2001/REC-SVG-20010904/DTD/svg10.dtd">
<svg version="1.0" xmlns="http://www.w3.org/2000/svg"
 width="90.000000pt" height="180.000000pt" viewBox="0 0 90.000000 180.000000"
 preserveAspectRatio="xMidYMid meet">
<metadata>
Created by potrace 1.13, written by Peter Selinger 2001-2015
</metadata>
<g transform="translate(0.000000,180.000000) scale(0.100000,-0.100000)"
fill="#000000" stroke="none">
<path d="M201 1151 c-25 -25 -26 -51 -7 -112 8 -24 17 -103 20 -176 7 -180 27
-223 105 -223 39 0 71 30 111 105 74 136 83 150 91 129 4 -10 8 -50 8 -89 2
-122 37 -198 81 -175 26 14 25 24 -2 61 -22 29 -23 40 -21 174 1 108 5 151 17
174 21 40 20 74 -3 102 -16 20 -22 22 -42 12 -30 -13 -46 -44 -54 -104 -11
-83 -152 -299 -195 -299 -32 0 -45 92 -31 235 15 161 15 165 -1 180 -26 25
-56 27 -77 6z"/>
</g>
</svg>
