<?xml version="1.0" standalone="no"?>
<!DOCTYPE svg PUBLIC "-//W3C//DTD SVG 20010904//EN"
 "http://www.w3.org/TR/2001/REC-SVG-20010904/DTD/svg10.dtd">
<svg version="1.0" xmlns="http://www.w3.org/2000/svg"
 width="90.000000pt" height="180.000000pt" viewBox="0 0 90.000000 180.000000"
 preserveAspectRatio="xMidYMid meet">
<metadata>
Created by potrace 1.13, written by Peter Selinger 2001-2015
</metadata>
<g transform="translate(0.000000,180.000000) scale(0.100000,-0.100000)"
fill="#000000" stroke="none">
<path d="M493 1438 c-11 -13 -22 -30 -25 -39 -5 -13 12 -225 26 -318 5 -33 5
-33 -27 -26 -99 22 -122 23 -177 4 -40 -13 -66 -31 -97 -65 -47 -52 -61 -97
-69 -212 -5 -68 -2 -82 18 -117 32 -55 76 -75 165 -75 70 0 73 1 109 38 39 40
109 153 126 205 17 51 25 52 32 5 8 -52 47 -153 70 -180 37 -42 113 2 86 51
-6 12 -14 21 -19 21 -11 0 -57 104 -66 150 -4 19 -17 54 -28 77 l-21 43 21 42
c12 24 26 79 31 123 10 76 9 83 -20 170 -17 49 -37 98 -46 108 -21 24 -65 21
-89 -5z m81 -247 c-3 -39 -9 -70 -11 -67 -3 3 -7 42 -9 87 -3 75 -2 81 12 67
13 -12 14 -29 8 -87z m-106 -224 c30 -16 40 -26 36 -37 -3 -8 -15 -38 -25 -67
-48 -132 -107 -193 -189 -193 -49 0 -66 12 -87 60 -10 25 -3 105 14 161 31 97
142 131 251 76z"/>
</g>
</svg>
