<?xml version="1.0" standalone="no"?>
<!DOCTYPE svg PUBLIC "-//W3C//DTD SVG 20010904//EN"
 "http://www.w3.org/TR/2001/REC-SVG-20010904/DTD/svg10.dtd">
<svg version="1.0" xmlns="http://www.w3.org/2000/svg"
 width="90.000000pt" height="180.000000pt" viewBox="0 0 90.000000 180.000000"
 preserveAspectRatio="xMidYMid meet">
<metadata>
Created by potrace 1.13, written by Peter Selinger 2001-2015
</metadata>
<g transform="translate(0.000000,180.000000) scale(0.100000,-0.100000)"
fill="#000000" stroke="none">
<path d="M375 1379 c-72 -34 -115 -85 -115 -136 0 -12 -4 -25 -10 -28 -5 -3
-10 -19 -10 -36 0 -38 34 -73 63 -65 12 3 25 6 28 6 7 0 25 42 32 75 3 14 5
12 6 -8 0 -16 6 -38 13 -50 17 -33 36 -155 32 -217 -3 -52 -26 -159 -39 -180
-4 -6 -7 -44 -7 -85 0 -71 -1 -75 -24 -81 -23 -6 -47 -4 -122 12 -57 11 -107
-42 -77 -83 17 -23 66 -22 230 6 72 12 166 24 210 28 84 6 105 14 105 43 0 38
-27 45 -98 27 -37 -9 -80 -17 -97 -17 l-30 0 2 100 c1 55 7 116 13 135 19 59
16 163 -9 259 -16 62 -21 101 -16 130 14 87 9 138 -15 158 -25 20 -36 21 -65
7z"/>
</g>
</svg>
