<?xml version="1.0" standalone="no"?>
<!DOCTYPE svg PUBLIC "-//W3C//DTD SVG 20010904//EN"
 "http://www.w3.org/TR/2001/REC-SVG-20010904/DTD/svg10.dtd">
<svg version="1.0" xmlns="http://www.w3.org/2000/svg"
 width="90.000000pt" height="180.000000pt" viewBox="0 0 90.000000 180.000000"
 preserveAspectRatio="xMidYMid meet">
<metadata>
Created by potrace 1.13, written by Peter Selinger 2001-2015
</metadata>
<g transform="translate(0.000000,180.000000) scale(0.100000,-0.100000)"
fill="#000000" stroke="none">
<path d="M697 1448 c-14 -18 -32 -47 -41 -65 -9 -18 -25 -37 -35 -42 -10 -6
-35 -32 -55 -58 -39 -51 -88 -113 -141 -178 l-33 -39 -21 24 c-79 92 -158 225
-175 292 -8 35 -58 70 -93 66 -25 -3 -28 -8 -30 -43 -3 -43 7 -61 49 -88 16
-9 39 -39 53 -66 13 -27 46 -76 72 -108 27 -32 54 -69 61 -81 6 -12 18 -31 24
-42 15 -23 3 -47 -70 -145 -95 -129 -178 -289 -165 -321 7 -18 52 -30 71 -18
7 5 25 42 38 83 13 40 36 93 51 118 40 64 114 177 123 187 5 4 25 -26 45 -68
20 -42 53 -97 74 -123 20 -27 45 -63 54 -82 28 -56 81 -121 104 -127 65 -18
86 57 30 110 -19 17 -44 49 -57 71 -13 22 -36 53 -52 69 -27 27 -94 124 -133
193 l-19 32 47 68 c53 77 91 116 229 241 104 92 118 121 80 155 -29 26 -58 21
-85 -15z"/>
</g>
</svg>
