<?xml version="1.0" standalone="no"?>
<!DOCTYPE svg PUBLIC "-//W3C//DTD SVG 20010904//EN"
 "http://www.w3.org/TR/2001/REC-SVG-20010904/DTD/svg10.dtd">
<svg version="1.0" xmlns="http://www.w3.org/2000/svg"
 width="90.000000pt" height="180.000000pt" viewBox="0 0 90.000000 180.000000"
 preserveAspectRatio="xMidYMid meet">
<metadata>
Created by potrace 1.13, written by Peter Selinger 2001-2015
</metadata>
<g transform="translate(0.000000,180.000000) scale(0.100000,-0.100000)"
fill="#000000" stroke="none">
<path d="M380 1216 c-6 -8 -10 -25 -8 -38 4 -30 56 -38 75 -12 17 23 16 29 -3
48 -19 20 -48 20 -64 2z"/>
<path d="M350 860 c-33 -33 -21 -83 24 -94 13 -3 27 -13 30 -22 9 -25 -23
-122 -65 -197 -21 -37 -36 -74 -33 -82 8 -21 53 -19 60 3 10 29 56 116 80 147
21 28 37 74 48 138 16 90 -86 165 -144 107z"/>
</g>
</svg>
