<?xml version="1.0" standalone="no"?>
<!DOCTYPE svg PUBLIC "-//W3C//DTD SVG 20010904//EN"
 "http://www.w3.org/TR/2001/REC-SVG-20010904/DTD/svg10.dtd">
<svg version="1.0" xmlns="http://www.w3.org/2000/svg"
 width="90.000000pt" height="180.000000pt" viewBox="0 0 90.000000 180.000000"
 preserveAspectRatio="xMidYMid meet">
<metadata>
Created by potrace 1.13, written by Peter Selinger 2001-2015
</metadata>
<g transform="translate(0.000000,180.000000) scale(0.100000,-0.100000)"
fill="#000000" stroke="none">
<path d="M370 1341 c-73 -15 -117 -60 -168 -173 -40 -89 -49 -140 -47 -284 2
-105 5 -127 23 -159 12 -20 22 -42 22 -49 0 -56 224 -110 315 -76 14 5 47 29
73 53 26 24 61 52 78 62 32 18 38 26 90 117 51 89 74 160 68 209 -6 45 -39
119 -54 119 -5 0 -38 25 -74 55 -43 37 -67 65 -71 85 -4 17 -15 35 -25 40 -21
11 -176 12 -230 1z m125 -71 c14 -5 29 -20 34 -33 5 -13 24 -34 43 -45 106
-68 157 -116 159 -150 1 -9 2 -24 3 -32 1 -8 -7 -40 -17 -70 -11 -30 -21 -62
-24 -70 -2 -9 -15 2 -34 32 -23 35 -31 59 -31 92 0 48 -27 96 -54 96 -9 0 -22
7 -30 15 -19 19 -77 19 -112 1 -15 -8 -56 -46 -90 -86 -59 -68 -62 -74 -62
-123 0 -68 28 -117 67 -117 37 0 75 25 146 94 33 31 63 54 68 51 4 -3 17 -26
29 -51 11 -27 28 -48 40 -51 18 -5 18 -7 5 -32 -21 -41 -124 -109 -185 -122
-134 -29 -221 57 -221 216 -1 92 16 214 35 258 15 38 88 114 121 128 28 11 79
11 110 -1z m5 -260 c0 -14 -88 -108 -112 -121 -16 -9 -18 -5 -18 26 0 52 50
96 118 104 6 0 12 -4 12 -9z"/>
</g>
</svg>
