<?xml version="1.0" standalone="no"?>
<!DOCTYPE svg PUBLIC "-//W3C//DTD SVG 20010904//EN"
 "http://www.w3.org/TR/2001/REC-SVG-20010904/DTD/svg10.dtd">
<svg version="1.0" xmlns="http://www.w3.org/2000/svg"
 width="90.000000pt" height="180.000000pt" viewBox="0 0 90.000000 180.000000"
 preserveAspectRatio="xMidYMid meet">
<metadata>
Created by potrace 1.13, written by Peter Selinger 2001-2015
</metadata>
<g transform="translate(0.000000,180.000000) scale(0.100000,-0.100000)"
fill="#000000" stroke="none">
<path d="M170 1540 c-12 -7 -15 -34 -16 -127 0 -139 -17 -346 -40 -493 -9 -58
-20 -163 -24 -235 -8 -156 1 -195 48 -195 49 0 52 11 45 193 -3 92 -2 187 1
212 7 45 7 45 90 85 86 42 101 47 91 30 -6 -10 34 -56 65 -76 20 -12 62 -84
133 -224 46 -93 58 -127 63 -180 3 -36 7 -75 10 -87 9 -47 82 -55 105 -12 18
34 -6 99 -103 272 -48 87 -88 161 -88 164 0 17 -75 170 -88 180 -9 7 -14 14
-11 15 2 2 33 18 69 36 77 38 171 142 189 208 16 58 -11 137 -61 177 -65 52
-223 73 -334 43 -48 -13 -53 -12 -68 5 -17 20 -52 25 -76 9z m397 -87 c54 -25
79 -103 51 -156 -44 -83 -147 -158 -277 -202 -39 -13 -84 -31 -100 -40 -17 -8
-32 -15 -35 -15 -10 0 5 209 19 260 8 30 15 64 15 76 0 68 231 123 327 77z"/>
</g>
</svg>
