<?xml version="1.0" standalone="no"?>
<!DOCTYPE svg PUBLIC "-//W3C//DTD SVG 20010904//EN"
 "http://www.w3.org/TR/2001/REC-SVG-20010904/DTD/svg10.dtd">
<svg version="1.0" xmlns="http://www.w3.org/2000/svg"
 width="90.000000pt" height="180.000000pt" viewBox="0 0 90.000000 180.000000"
 preserveAspectRatio="xMidYMid meet">
<metadata>
Created by potrace 1.13, written by Peter Selinger 2001-2015
</metadata>
<g transform="translate(0.000000,180.000000) scale(0.100000,-0.100000)"
fill="#000000" stroke="none">
<path d="M763 1428 c-33 -38 -71 -120 -77 -170 -5 -41 -34 -116 -85 -215 -9
-18 -52 -92 -96 -165 -44 -73 -86 -146 -94 -163 -12 -27 -14 -28 -23 -11 -6
10 -28 68 -50 129 -21 61 -42 116 -47 121 -5 6 -14 29 -21 51 -7 22 -16 45
-20 50 -5 6 -18 46 -29 91 -31 120 -106 273 -141 286 -21 8 -58 -17 -61 -42
-5 -43 5 -66 42 -103 50 -50 103 -155 134 -267 4 -14 16 -39 26 -56 11 -17 19
-40 19 -50 0 -17 24 -98 55 -184 7 -19 21 -62 31 -94 26 -83 42 -100 83 -91
37 8 49 30 75 140 19 79 81 190 157 279 27 32 49 65 49 73 0 9 18 48 40 86 23
39 46 92 51 118 6 26 26 69 45 96 40 56 41 66 14 93 -26 26 -52 25 -77 -2z"/>
</g>
</svg>
