<?xml version="1.0" standalone="no"?>
<!DOCTYPE svg PUBLIC "-//W3C//DTD SVG 20010904//EN"
 "http://www.w3.org/TR/2001/REC-SVG-20010904/DTD/svg10.dtd">
<svg version="1.0" xmlns="http://www.w3.org/2000/svg"
 width="90.000000pt" height="180.000000pt" viewBox="0 0 90.000000 180.000000"
 preserveAspectRatio="xMidYMid meet">
<metadata>
Created by potrace 1.13, written by Peter Selinger 2001-2015
</metadata>
<g transform="translate(0.000000,180.000000) scale(0.100000,-0.100000)"
fill="#000000" stroke="none">
<path d="M306 1405 c-31 -29 -33 -48 -6 -75 24 -24 56 -25 135 -5 63 17 78 11
70 -30 -2 -11 -9 -48 -16 -82 -11 -59 -8 -267 6 -363 3 -19 8 -81 11 -137 6
-92 5 -103 -10 -103 -9 0 -24 -5 -34 -10 -9 -6 -46 -19 -82 -28 -58 -15 -65
-20 -65 -42 0 -22 4 -25 35 -24 204 8 248 17 252 52 3 36 -4 80 -23 142 -13
42 -23 119 -29 220 -6 85 -13 167 -16 182 -3 17 8 65 31 132 23 64 35 116 31
129 -7 31 -50 51 -77 36 -26 -13 -124 -2 -140 17 -17 21 -43 17 -73 -11z"/>
</g>
</svg>
