<?xml version="1.0" standalone="no"?>
<!DOCTYPE svg PUBLIC "-//W3C//DTD SVG 20010904//EN"
 "http://www.w3.org/TR/2001/REC-SVG-20010904/DTD/svg10.dtd">
<svg version="1.0" xmlns="http://www.w3.org/2000/svg"
 width="90.000000pt" height="180.000000pt" viewBox="0 0 90.000000 180.000000"
 preserveAspectRatio="xMidYMid meet">
<metadata>
Created by potrace 1.13, written by Peter Selinger 2001-2015
</metadata>
<g transform="translate(0.000000,180.000000) scale(0.100000,-0.100000)"
fill="#000000" stroke="none">
<path d="M616 1166 c-9 -19 -16 -41 -16 -49 0 -19 -72 -139 -116 -193 -42 -52
-140 -110 -159 -94 -15 12 -26 97 -25 189 1 102 -41 141 -95 86 -31 -30 -31
-53 0 -121 14 -30 25 -62 25 -70 0 -24 31 -127 42 -141 6 -7 28 -18 50 -24 33
-8 45 -7 73 8 32 18 144 133 176 183 15 23 17 10 24 -224 l7 -248 -27 -28
c-44 -46 -114 -71 -204 -73 -86 -1 -111 9 -111 48 0 28 -30 55 -61 55 -34 0
-49 -18 -49 -58 0 -75 92 -116 255 -115 70 0 89 5 155 36 110 52 115 59 112
170 -2 51 -7 120 -12 153 -25 160 -8 371 36 435 42 61 28 109 -32 109 -26 0
-34 -6 -48 -34z"/>
</g>
</svg>
