<?xml version="1.0" standalone="no"?>
<!DOCTYPE svg PUBLIC "-//W3C//DTD SVG 20010904//EN"
 "http://www.w3.org/TR/2001/REC-SVG-20010904/DTD/svg10.dtd">
<svg version="1.0" xmlns="http://www.w3.org/2000/svg"
 width="90.000000pt" height="180.000000pt" viewBox="0 0 90.000000 180.000000"
 preserveAspectRatio="xMidYMid meet">
<metadata>
Created by potrace 1.13, written by Peter Selinger 2001-2015
</metadata>
<g transform="translate(0.000000,180.000000) scale(0.100000,-0.100000)"
fill="#000000" stroke="none">
<path d="M660 1458 c-22 -24 -27 -67 -9 -85 16 -16 38 -138 31 -166 -7 -31
-20 -37 -78 -37 -27 0 -54 -4 -60 -8 -5 -5 -29 -14 -54 -21 -25 -8 -65 -19
-90 -27 -42 -12 -154 -13 -167 -1 -7 8 -7 42 0 102 20 169 19 179 -5 208 -23
27 -71 37 -82 18 -13 -20 -17 -83 -6 -96 7 -8 11 -84 13 -217 1 -171 -2 -213
-17 -263 -22 -73 -39 -192 -32 -221 3 -12 13 -25 22 -28 30 -11 49 11 61 71 6
32 19 96 28 143 10 47 20 104 22 126 5 39 8 42 46 54 23 6 51 18 62 25 31 19
118 35 233 40 l102 6 0 -52 c0 -63 -25 -179 -51 -237 -11 -24 -22 -63 -25 -85
-5 -35 -2 -45 15 -61 17 -16 27 -18 48 -10 34 12 39 23 53 124 7 47 23 128 36
180 21 84 23 106 16 195 -5 55 -7 132 -5 170 2 39 4 85 5 104 3 62 -70 94
-112 49z"/>
</g>
</svg>
