<?xml version="1.0" standalone="no"?>
<!DOCTYPE svg PUBLIC "-//W3C//DTD SVG 20010904//EN"
 "http://www.w3.org/TR/2001/REC-SVG-20010904/DTD/svg10.dtd">
<svg version="1.0" xmlns="http://www.w3.org/2000/svg"
 width="90.000000pt" height="180.000000pt" viewBox="0 0 90.000000 180.000000"
 preserveAspectRatio="xMidYMid meet">
<metadata>
Created by potrace 1.13, written by Peter Selinger 2001-2015
</metadata>
<g transform="translate(0.000000,180.000000) scale(0.100000,-0.100000)"
fill="#000000" stroke="none">
<path d="M430 1134 c-74 -28 -97 -46 -122 -99 -22 -46 -51 -182 -44 -209 16
-66 134 -144 201 -133 44 7 99 49 128 98 l23 38 17 -67 c10 -37 23 -80 28 -97
6 -16 17 -52 24 -80 7 -27 16 -58 20 -67 5 -12 3 -18 -6 -18 -131 -1 -275 -48
-334 -110 -25 -27 -30 -40 -33 -98 -3 -57 0 -72 20 -102 33 -49 80 -70 158
-70 54 0 78 6 136 34 58 28 79 44 117 96 43 57 47 66 47 120 0 42 4 59 15 64
26 10 18 54 -14 70 -31 17 -65 85 -81 163 -5 27 -16 70 -25 97 -19 63 -19 97
1 155 15 42 15 49 1 84 -11 25 -22 37 -36 37 -11 0 -22 9 -26 20 -11 35 -74
68 -140 74 -33 3 -67 3 -75 0z m85 -92 c6 -4 19 -20 29 -36 15 -24 23 -27 48
-22 27 5 29 4 22 -17 -3 -12 -27 -58 -53 -102 -42 -72 -50 -80 -86 -87 -33 -7
-45 -5 -84 20 -40 24 -46 33 -49 66 -3 40 15 98 50 154 18 29 24 32 66 32 26
0 52 -4 57 -8z m214 -620 c6 -10 8 -27 6 -38 -2 -10 -6 -31 -9 -45 -15 -71
-121 -149 -203 -149 -68 0 -87 12 -101 64 -10 39 -10 51 3 75 15 29 73 70 110
77 11 2 31 8 45 13 64 25 137 26 149 3z"/>
</g>
</svg>
