<?xml version="1.0" standalone="no"?>
<!DOCTYPE svg PUBLIC "-//W3C//DTD SVG 20010904//EN"
 "http://www.w3.org/TR/2001/REC-SVG-20010904/DTD/svg10.dtd">
<svg version="1.0" xmlns="http://www.w3.org/2000/svg"
 width="90.000000pt" height="180.000000pt" viewBox="0 0 90.000000 180.000000"
 preserveAspectRatio="xMidYMid meet">
<metadata>
Created by potrace 1.13, written by Peter Selinger 2001-2015
</metadata>
<g transform="translate(0.000000,180.000000) scale(0.100000,-0.100000)"
fill="#000000" stroke="none">
<path d="M567 1169 c-30 -18 -232 -24 -278 -9 -46 16 -65 9 -89 -33 -13 -23
-13 -28 4 -46 25 -27 82 -28 199 -2 48 10 87 17 87 14 0 -7 -93 -133 -98 -133
-2 0 -15 9 -29 20 -31 24 -80 26 -111 4 -43 -30 -19 -72 51 -89 15 -4 27 -10
27 -12 0 -6 -53 -68 -110 -130 -17 -18 -30 -42 -30 -53 0 -30 35 -60 72 -61
116 -5 153 -4 233 3 202 19 260 38 235 78 -7 11 -21 10 -85 -5 -61 -14 -101
-17 -194 -12 -64 3 -129 10 -144 16 -34 13 -29 25 44 105 55 60 59 61 121 31
49 -23 84 -27 97 -11 22 27 9 48 -39 60 -80 21 -84 26 -51 67 16 19 49 48 73
64 91 61 109 93 70 128 -21 20 -30 20 -55 6z"/>
</g>
</svg>
