<?xml version="1.0" standalone="no"?>
<!DOCTYPE svg PUBLIC "-//W3C//DTD SVG 20010904//EN"
 "http://www.w3.org/TR/2001/REC-SVG-20010904/DTD/svg10.dtd">
<svg version="1.0" xmlns="http://www.w3.org/2000/svg"
 width="90.000000pt" height="180.000000pt" viewBox="0 0 90.000000 180.000000"
 preserveAspectRatio="xMidYMid meet">
<metadata>
Created by potrace 1.13, written by Peter Selinger 2001-2015
</metadata>
<g transform="translate(0.000000,180.000000) scale(0.100000,-0.100000)"
fill="#000000" stroke="none">
<path d="M319 1449 c-11 -11 -18 -27 -15 -36 3 -8 6 -20 6 -27 0 -24 40 -56
70 -56 39 0 56 30 40 70 -24 57 -70 80 -101 49z"/>
<path d="M367 1022 c-28 -31 -20 -85 32 -218 11 -29 18 -54 15 -57 -3 -3 6
-32 20 -65 36 -85 56 -192 56 -298 0 -68 -4 -95 -14 -104 -8 -6 -20 -27 -26
-46 -14 -40 -35 -54 -86 -54 -90 0 -189 120 -147 179 13 19 14 29 4 61 -12 40
-33 52 -69 39 -21 -8 -22 -15 -22 -101 0 -109 9 -126 109 -205 51 -40 76 -53
114 -58 83 -12 122 17 181 134 26 51 27 57 21 155 -5 66 -21 155 -47 256 -68
266 -68 262 -57 281 18 34 10 76 -17 98 -33 26 -46 26 -67 3z"/>
</g>
</svg>
