<?xml version="1.0" standalone="no"?>
<!DOCTYPE svg PUBLIC "-//W3C//DTD SVG 20010904//EN"
 "http://www.w3.org/TR/2001/REC-SVG-20010904/DTD/svg10.dtd">
<svg version="1.0" xmlns="http://www.w3.org/2000/svg"
 width="90.000000pt" height="180.000000pt" viewBox="0 0 90.000000 180.000000"
 preserveAspectRatio="xMidYMid meet">
<metadata>
Created by potrace 1.13, written by Peter Selinger 2001-2015
</metadata>
<g transform="translate(0.000000,180.000000) scale(0.100000,-0.100000)"
fill="#000000" stroke="none">
<path d="M211 1549 c-23 -25 -28 -68 -10 -86 21 -21 26 -92 17 -237 -5 -88 -5
-161 1 -186 7 -32 5 -57 -9 -108 -10 -37 -21 -101 -25 -142 -4 -41 -13 -86
-21 -102 -22 -42 -18 -67 14 -81 20 -9 26 -18 24 -35 -5 -31 15 -52 47 -52 36
0 166 66 216 110 109 96 139 135 158 206 26 102 23 123 -26 195 -68 99 -79
104 -209 104 l-110 -1 6 96 c3 52 10 138 15 190 9 85 8 98 -8 120 -24 33 -54
36 -80 9z m276 -504 c34 -24 73 -99 73 -141 0 -52 -70 -166 -124 -203 -52 -36
-147 -81 -170 -81 -16 0 -17 9 -12 88 4 68 30 307 35 320 1 1 11 2 24 2 12 0
40 7 62 15 52 18 85 19 112 0z"/>
</g>
</svg>
