<?xml version="1.0" standalone="no"?>
<!DOCTYPE svg PUBLIC "-//W3C//DTD SVG 20010904//EN"
 "http://www.w3.org/TR/2001/REC-SVG-20010904/DTD/svg10.dtd">
<svg version="1.0" xmlns="http://www.w3.org/2000/svg"
 width="90.000000pt" height="180.000000pt" viewBox="0 0 90.000000 180.000000"
 preserveAspectRatio="xMidYMid meet">
<metadata>
Created by potrace 1.13, written by Peter Selinger 2001-2015
</metadata>
<g transform="translate(0.000000,180.000000) scale(0.100000,-0.100000)"
fill="#000000" stroke="none">
<path d="M505 1168 c-29 -29 -79 -74 -113 -100 -62 -48 -204 -128 -226 -128
-22 0 -46 -36 -46 -69 0 -27 5 -34 34 -46 19 -8 42 -12 50 -9 34 13 134 -27
339 -138 49 -27 85 -24 93 9 9 32 -10 48 -69 58 -23 3 -106 39 -185 79 -166
83 -166 70 -7 161 55 31 108 65 117 76 10 10 34 23 54 28 97 27 129 131 41
131 -22 0 -43 -13 -82 -52z"/>
</g>
</svg>
