<?xml version="1.0" standalone="no"?>
<!DOCTYPE svg PUBLIC "-//W3C//DTD SVG 20010904//EN"
 "http://www.w3.org/TR/2001/REC-SVG-20010904/DTD/svg10.dtd">
<svg version="1.0" xmlns="http://www.w3.org/2000/svg"
 width="90.000000pt" height="180.000000pt" viewBox="0 0 90.000000 180.000000"
 preserveAspectRatio="xMidYMid meet">
<metadata>
Created by potrace 1.13, written by Peter Selinger 2001-2015
</metadata>
<g transform="translate(0.000000,180.000000) scale(0.100000,-0.100000)"
fill="#000000" stroke="none">
<path d="M353 1458 c-23 -11 -39 -42 -34 -66 1 -8 -2 -19 -8 -25 -11 -14 -29
-94 -41 -187 -5 -36 -22 -101 -38 -145 -49 -131 -93 -287 -109 -382 -5 -33 23
-73 52 -73 28 0 56 39 55 78 -1 56 12 135 26 157 7 11 17 38 23 60 9 34 17 43
55 58 52 22 190 37 262 30 45 -5 53 -3 67 17 15 22 16 22 27 -21 7 -24 23 -75
37 -114 25 -71 28 -82 38 -147 3 -21 13 -44 21 -53 21 -20 57 -19 77 3 29 31
26 43 -52 247 -17 44 -31 89 -31 99 0 19 -9 52 -33 121 -11 32 -141 164 -201
205 -68 46 -96 72 -96 89 0 49 -48 73 -97 49z m123 -188 c68 -38 181 -163 195
-213 11 -41 6 -64 -6 -28 -9 30 -50 37 -104 18 -60 -21 -231 -34 -231 -18 0 7
9 29 20 51 11 22 20 51 20 65 0 41 33 155 45 155 5 0 33 -13 61 -30z"/>
</g>
</svg>
