<?xml version="1.0" standalone="no"?>
<!DOCTYPE svg PUBLIC "-//W3C//DTD SVG 20010904//EN"
 "http://www.w3.org/TR/2001/REC-SVG-20010904/DTD/svg10.dtd">
<svg version="1.0" xmlns="http://www.w3.org/2000/svg"
 width="90.000000pt" height="180.000000pt" viewBox="0 0 90.000000 180.000000"
 preserveAspectRatio="xMidYMid meet">
<metadata>
Created by potrace 1.13, written by Peter Selinger 2001-2015
</metadata>
<g transform="translate(0.000000,180.000000) scale(0.100000,-0.100000)"
fill="#000000" stroke="none">
<path d="M142 1084 c-28 -19 -28 -48 -1 -99 19 -38 41 -187 34 -240 -5 -38
-18 -80 -31 -100 -17 -24 -18 -117 -2 -133 17 -17 63 -15 78 3 8 9 12 47 11
105 -1 101 18 200 54 275 12 28 25 58 29 68 8 26 20 21 44 -22 35 -61 39 -120
13 -191 -37 -101 -26 -164 27 -158 30 3 39 26 41 100 1 48 23 155 42 205 15
40 69 93 94 93 38 0 55 -31 55 -97 0 -33 5 -74 11 -92 9 -24 7 -54 -5 -131
-13 -74 -14 -104 -6 -120 12 -22 52 -27 68 -7 15 17 8 422 -8 467 -32 92 -115
95 -204 6 l-44 -44 -13 29 c-15 38 -45 59 -84 59 -40 0 -48 -7 -76 -60 l-24
-45 -3 40 c-4 66 -10 81 -37 93 -33 15 -36 15 -63 -4z"/>
</g>
</svg>
