<?xml version="1.0" standalone="no"?>
<!DOCTYPE svg PUBLIC "-//W3C//DTD SVG 20010904//EN"
 "http://www.w3.org/TR/2001/REC-SVG-20010904/DTD/svg10.dtd">
<svg version="1.0" xmlns="http://www.w3.org/2000/svg"
 width="90.000000pt" height="180.000000pt" viewBox="0 0 90.000000 180.000000"
 preserveAspectRatio="xMidYMid meet">
<metadata>
Created by potrace 1.13, written by Peter Selinger 2001-2015
</metadata>
<g transform="translate(0.000000,180.000000) scale(0.100000,-0.100000)"
fill="#000000" stroke="none">
<path d="M182 1493 c-12 -2 -29 -18 -38 -35 -14 -26 -14 -37 -4 -69 10 -28 10
-59 3 -126 -6 -48 -8 -119 -4 -158 3 -38 2 -99 -3 -135 -5 -36 -9 -83 -9 -105
1 -22 -4 -87 -9 -145 -9 -94 -8 -113 12 -185 40 -152 89 -225 150 -225 39 0
134 119 147 184 15 73 78 173 150 240 40 37 96 99 126 139 30 40 69 86 87 102
17 17 41 48 52 69 18 36 20 51 13 135 -8 112 -18 134 -85 193 -78 68 -186 106
-325 113 -60 3 -139 7 -175 9 -36 2 -75 2 -88 -1z m396 -86 c55 -16 155 -85
173 -119 6 -11 13 -59 16 -108 l6 -88 -49 -67 c-27 -36 -61 -82 -75 -102 -14
-19 -33 -39 -42 -45 -10 -5 -26 -26 -36 -46 -11 -20 -47 -64 -81 -97 -73 -71
-137 -158 -174 -237 -15 -32 -30 -58 -35 -58 -15 0 -31 26 -37 61 -4 19 -13
41 -20 50 -23 26 -34 144 -23 233 6 45 12 169 13 276 2 108 9 225 16 262 13
66 14 68 54 82 23 8 50 17 61 20 40 9 181 -1 233 -17z"/>
</g>
</svg>
