<?xml version="1.0" standalone="no"?>
<!DOCTYPE svg PUBLIC "-//W3C//DTD SVG 20010904//EN"
 "http://www.w3.org/TR/2001/REC-SVG-20010904/DTD/svg10.dtd">
<svg version="1.0" xmlns="http://www.w3.org/2000/svg"
 width="90.000000pt" height="180.000000pt" viewBox="0 0 90.000000 180.000000"
 preserveAspectRatio="xMidYMid meet">
<metadata>
Created by potrace 1.13, written by Peter Selinger 2001-2015
</metadata>
<g transform="translate(0.000000,180.000000) scale(0.100000,-0.100000)"
fill="#000000" stroke="none">
<path d="M405 1459 c-74 -21 -174 -143 -201 -244 -16 -62 -34 -213 -39 -325
-1 -36 -5 -79 -9 -97 -9 -40 41 -162 86 -209 54 -58 111 -78 215 -77 81 1 98
4 137 27 l44 26 16 -25 c18 -27 45 -32 77 -14 15 8 19 20 18 52 -1 43 15 149
26 167 6 10 29 90 46 163 11 43 -8 92 -39 101 -10 3 -67 -3 -127 -14 -84 -15
-131 -19 -196 -14 -72 6 -88 4 -102 -10 -25 -25 -21 -63 8 -82 26 -17 54 -16
147 5 57 12 175 18 184 8 13 -13 -78 -230 -114 -271 -34 -38 -71 -46 -155 -31
-43 7 -89 20 -102 29 -13 8 -36 41 -52 73 -27 55 -28 63 -25 178 2 66 8 136
14 155 6 19 11 62 10 95 0 53 4 69 41 133 52 91 108 132 183 132 71 -1 119
-14 155 -44 39 -33 74 -34 95 0 27 41 10 74 -50 97 -55 20 -241 31 -291 16z"/>
</g>
</svg>
