<?xml version="1.0" standalone="no"?>
<!DOCTYPE svg PUBLIC "-//W3C//DTD SVG 20010904//EN"
 "http://www.w3.org/TR/2001/REC-SVG-20010904/DTD/svg10.dtd">
<svg version="1.0" xmlns="http://www.w3.org/2000/svg"
 width="90.000000pt" height="180.000000pt" viewBox="0 0 90.000000 180.000000"
 preserveAspectRatio="xMidYMid meet">
<metadata>
Created by potrace 1.13, written by Peter Selinger 2001-2015
</metadata>
<g transform="translate(0.000000,180.000000) scale(0.100000,-0.100000)"
fill="#000000" stroke="none">
<path d="M169 1509 c-23 -23 -23 -24 -3 -83 17 -49 17 -57 -16 -371 -5 -49
-13 -151 -19 -225 -5 -81 -15 -151 -25 -174 -16 -39 -15 -50 20 -183 6 -22 53
-27 74 -8 22 20 26 60 9 114 -6 20 -15 49 -19 64 -5 17 -4 65 2 116 10 85 12
88 37 89 42 1 158 53 269 120 56 34 106 62 110 62 19 0 74 71 111 144 59 114
56 193 -7 263 -58 63 -127 80 -346 86 -165 4 -180 3 -197 -14z m431 -71 c38
-20 47 -31 64 -79 l20 -56 -21 -39 c-11 -22 -24 -54 -27 -70 -9 -41 -51 -79
-166 -152 -64 -41 -119 -67 -170 -81 -41 -12 -78 -21 -81 -21 -24 0 -12 167
21 300 10 41 22 103 25 137 l7 62 41 10 c23 5 87 9 142 10 86 1 107 -2 145
-21z"/>
</g>
</svg>
