<?xml version="1.0" standalone="no"?>
<!DOCTYPE svg PUBLIC "-//W3C//DTD SVG 20010904//EN"
 "http://www.w3.org/TR/2001/REC-SVG-20010904/DTD/svg10.dtd">
<svg version="1.0" xmlns="http://www.w3.org/2000/svg"
 width="90.000000pt" height="180.000000pt" viewBox="0 0 90.000000 180.000000"
 preserveAspectRatio="xMidYMid meet">
<metadata>
Created by potrace 1.13, written by Peter Selinger 2001-2015
</metadata>
<g transform="translate(0.000000,180.000000) scale(0.100000,-0.100000)"
fill="#000000" stroke="none">
<path d="M393 1424 c-34 -7 -85 -25 -113 -39 -44 -22 -54 -33 -76 -83 -14 -31
-38 -69 -55 -84 -32 -30 -37 -62 -13 -96 30 -43 85 -14 100 52 10 48 49 129
70 148 27 24 159 58 225 58 45 0 60 -4 77 -23 31 -33 38 -97 18 -161 -18 -57
-40 -81 -284 -306 -167 -155 -217 -246 -157 -286 17 -11 34 -14 53 -10 78 19
137 25 261 27 139 2 161 7 161 40 0 26 -33 41 -65 29 -14 -5 -97 -9 -185 -7
l-159 2 25 30 c13 17 30 44 38 61 14 32 202 208 287 270 75 55 96 95 104 194
9 109 -6 150 -64 179 -48 25 -150 27 -248 5z"/>
</g>
</svg>
