<?xml version="1.0" standalone="no"?>
<!DOCTYPE svg PUBLIC "-//W3C//DTD SVG 20010904//EN"
 "http://www.w3.org/TR/2001/REC-SVG-20010904/DTD/svg10.dtd">
<svg version="1.0" xmlns="http://www.w3.org/2000/svg"
 width="90.000000pt" height="180.000000pt" viewBox="0 0 90.000000 180.000000"
 preserveAspectRatio="xMidYMid meet">
<metadata>
Created by potrace 1.13, written by Peter Selinger 2001-2015
</metadata>
<g transform="translate(0.000000,180.000000) scale(0.100000,-0.100000)"
fill="#000000" stroke="none">
<path d="M373 1445 c-31 -21 -47 -78 -34 -115 5 -17 13 -57 17 -90 7 -59 6
-60 -19 -60 -14 0 -49 5 -78 12 -50 12 -52 11 -75 -16 -29 -33 -30 -40 -4 -66
24 -24 71 -26 130 -5 l42 15 -8 -68 c-14 -103 -9 -359 7 -378 32 -38 107 -35
129 6 5 10 30 28 55 40 70 34 113 102 85 135 -21 25 -45 17 -79 -25 -36 -45
-63 -65 -103 -74 -25 -6 -28 -3 -37 31 -14 50 -13 190 2 277 l12 70 95 29 c52
16 106 32 119 35 33 9 49 37 35 60 -17 27 -53 27 -83 0 -19 -19 -125 -58 -154
-58 -7 0 6 186 14 195 13 14 11 32 -7 49 -19 20 -34 20 -61 1z"/>
</g>
</svg>
