<?xml version="1.0" standalone="no"?>
<!DOCTYPE svg PUBLIC "-//W3C//DTD SVG 20010904//EN"
 "http://www.w3.org/TR/2001/REC-SVG-20010904/DTD/svg10.dtd">
<svg version="1.0" xmlns="http://www.w3.org/2000/svg"
 width="90.000000pt" height="180.000000pt" viewBox="0 0 90.000000 180.000000"
 preserveAspectRatio="xMidYMid meet">
<metadata>
Created by potrace 1.13, written by Peter Selinger 2001-2015
</metadata>
<g transform="translate(0.000000,180.000000) scale(0.100000,-0.100000)"
fill="#000000" stroke="none">
<path d="M193 1476 c-26 -22 -27 -29 -31 -124 -4 -92 -2 -104 23 -161 16 -35
45 -76 67 -96 21 -20 57 -65 79 -102 l41 -66 -11 -79 c-16 -118 -73 -209 -145
-228 -11 -3 -24 -13 -30 -23 -26 -41 43 -72 105 -47 52 22 129 172 129 253 0
63 10 72 50 42 19 -14 36 -29 39 -33 3 -5 34 -26 68 -47 35 -21 68 -44 74 -51
15 -18 53 -18 69 1 28 34 -4 66 -150 146 -41 23 -90 55 -108 73 l-33 31 7 100
c6 105 -5 198 -33 263 -58 137 -67 151 -96 162 -48 16 -84 12 -114 -14z m130
-123 c15 -32 31 -80 36 -108 14 -75 24 -205 17 -205 -4 0 -27 31 -51 70 -25
38 -50 72 -56 76 -6 3 -17 22 -25 40 -12 29 -12 46 -2 102 18 102 42 109 81
25z"/>
</g>
</svg>
