<?xml version="1.0" standalone="no"?>
<!DOCTYPE svg PUBLIC "-//W3C//DTD SVG 20010904//EN"
 "http://www.w3.org/TR/2001/REC-SVG-20010904/DTD/svg10.dtd">
<svg version="1.0" xmlns="http://www.w3.org/2000/svg"
 width="90.000000pt" height="180.000000pt" viewBox="0 0 90.000000 180.000000"
 preserveAspectRatio="xMidYMid meet">
<metadata>
Created by potrace 1.13, written by Peter Selinger 2001-2015
</metadata>
<g transform="translate(0.000000,180.000000) scale(0.100000,-0.100000)"
fill="#000000" stroke="none">
<path d="M511 1303 c-13 -11 -36 -59 -55 -113 -42 -119 -142 -318 -196 -388
-22 -29 -44 -68 -47 -85 -4 -18 -15 -45 -25 -62 -10 -16 -18 -37 -18 -46 0
-23 26 -42 48 -35 17 6 52 64 52 86 0 19 62 144 129 259 38 65 72 129 76 142
15 50 60 120 92 145 38 29 44 71 15 97 -24 22 -44 21 -71 0z"/>
<path d="M133 1258 c-50 -55 -71 -140 -53 -208 14 -51 58 -75 118 -64 47 9
139 60 157 88 20 32 28 91 16 115 -13 24 -100 71 -130 71 -11 0 -23 5 -26 10
-11 18 -61 11 -82 -12z m140 -96 c10 -9 12 -22 8 -45 -7 -33 -27 -43 -93 -46
-23 -1 -28 3 -28 23 0 12 5 36 10 52 9 26 15 29 49 28 22 0 46 -6 54 -12z"/>
<path d="M635 916 c-11 -9 -36 -16 -55 -16 -45 0 -73 -20 -104 -73 -38 -64
-43 -118 -16 -162 12 -19 35 -42 52 -51 26 -14 35 -14 82 0 57 17 94 50 148
135 37 59 36 93 -4 136 -39 41 -75 52 -103 31z m32 -128 c-7 -50 -47 -93 -95
-102 -40 -7 -49 8 -33 57 18 53 56 82 115 86 16 1 18 -4 13 -41z"/>
</g>
</svg>
