<?xml version="1.0" standalone="no"?>
<!DOCTYPE svg PUBLIC "-//W3C//DTD SVG 20010904//EN"
 "http://www.w3.org/TR/2001/REC-SVG-20010904/DTD/svg10.dtd">
<svg version="1.0" xmlns="http://www.w3.org/2000/svg"
 width="90.000000pt" height="180.000000pt" viewBox="0 0 90.000000 180.000000"
 preserveAspectRatio="xMidYMid meet">
<metadata>
Created by potrace 1.13, written by Peter Selinger 2001-2015
</metadata>
<g transform="translate(0.000000,180.000000) scale(0.100000,-0.100000)"
fill="#000000" stroke="none">
<path d="M640 1408 c-47 -19 -330 -41 -380 -29 -90 22 -182 -12 -155 -55 16
-26 113 -48 150 -35 35 12 155 41 172 41 8 0 8 -9 1 -34 -9 -28 -8 -42 6 -69
9 -19 16 -43 16 -52 0 -10 16 -52 35 -95 19 -43 35 -92 35 -110 0 -42 -24
-135 -54 -207 -13 -32 -29 -73 -36 -90 -22 -59 -53 -83 -108 -83 -38 0 -57 6
-93 32 -55 41 -56 42 -64 101 -7 48 -33 87 -58 87 -24 0 -57 -31 -57 -55 0
-13 12 -51 26 -84 64 -146 272 -224 378 -140 14 11 26 26 26 32 0 7 11 33 25
59 14 26 25 56 25 66 0 11 13 48 30 84 52 111 50 174 -8 338 -28 76 -30 89
-20 127 10 34 9 45 -5 67 -9 14 -17 28 -17 31 0 3 47 5 105 5 94 0 105 2 115
20 25 47 -26 75 -90 48z"/>
</g>
</svg>
