<?xml version="1.0" standalone="no"?>
<!DOCTYPE svg PUBLIC "-//W3C//DTD SVG 20010904//EN"
 "http://www.w3.org/TR/2001/REC-SVG-20010904/DTD/svg10.dtd">
<svg version="1.0" xmlns="http://www.w3.org/2000/svg"
 width="90.000000pt" height="180.000000pt" viewBox="0 0 90.000000 180.000000"
 preserveAspectRatio="xMidYMid meet">
<metadata>
Created by potrace 1.13, written by Peter Selinger 2001-2015
</metadata>
<g transform="translate(0.000000,180.000000) scale(0.100000,-0.100000)"
fill="#000000" stroke="none">
<path d="M412 1384 c-18 -13 -22 -25 -22 -75 0 -78 -36 -156 -122 -270 -36
-47 -70 -94 -76 -105 -5 -10 -28 -30 -50 -44 -33 -20 -45 -37 -62 -83 -12 -32
-19 -65 -16 -73 14 -35 78 -35 173 0 42 16 203 34 203 23 0 -28 -35 -146 -47
-159 -14 -15 -14 -27 -5 -85 7 -44 8 -71 2 -77 -18 -18 -11 -64 12 -80 58 -41
90 -1 90 112 1 43 -5 88 -11 101 -9 16 -9 31 -2 54 5 18 13 57 16 88 l7 57 56
7 c31 4 88 15 127 25 38 9 82 20 98 24 22 5 27 12 27 36 0 40 -40 52 -73 22
-25 -22 -70 -38 -137 -47 -25 -3 -58 -9 -73 -12 l-29 -5 5 53 c3 30 13 98 23
152 15 76 22 97 35 97 29 0 40 25 33 71 -9 59 -27 86 -64 94 -23 5 -29 11 -25
24 6 19 -25 65 -54 81 -13 6 -24 4 -39 -6z m58 -288 c0 -28 -7 -102 -17 -163
-17 -109 -19 -113 -43 -113 -14 0 -68 -5 -120 -10 -52 -5 -96 -8 -97 -6 -9 8
56 116 123 207 44 58 90 126 104 152 l24 46 13 -31 c7 -16 13 -53 13 -82z"/>
</g>
</svg>
