<?xml version="1.0" standalone="no"?>
<!DOCTYPE svg PUBLIC "-//W3C//DTD SVG 20010904//EN"
 "http://www.w3.org/TR/2001/REC-SVG-20010904/DTD/svg10.dtd">
<svg version="1.0" xmlns="http://www.w3.org/2000/svg"
 width="90.000000pt" height="180.000000pt" viewBox="0 0 90.000000 180.000000"
 preserveAspectRatio="xMidYMid meet">
<metadata>
Created by potrace 1.13, written by Peter Selinger 2001-2015
</metadata>
<g transform="translate(0.000000,180.000000) scale(0.100000,-0.100000)"
fill="#000000" stroke="none">
<path d="M347 1590 c-18 -21 -27 -46 -32 -92 -3 -35 -10 -77 -15 -94 -7 -30
25 -142 75 -258 9 -21 13 -42 8 -46 -14 -13 -111 -30 -174 -30 -78 0 -119 -20
-119 -59 0 -16 7 -34 15 -41 18 -15 79 -6 132 20 21 10 68 27 105 38 l68 20
11 -37 c6 -20 13 -68 16 -107 l5 -70 -43 -37 c-24 -21 -60 -45 -80 -54 -40
-17 -54 -45 -38 -74 21 -40 63 -33 127 22 18 16 37 29 41 29 5 0 19 19 30 43
26 53 29 178 6 253 -8 27 -15 50 -15 50 0 6 138 26 189 28 68 3 84 12 79 46
-5 35 -31 47 -70 31 -33 -13 -182 -50 -205 -51 -18 0 -29 26 -62 151 -24 95
-28 123 -20 162 19 105 60 134 113 80 14 -16 36 -38 48 -50 41 -44 96 -21 83
36 -9 42 -63 86 -128 105 -85 25 -121 21 -150 -14z"/>
</g>
</svg>
