<?xml version="1.0" standalone="no"?>
<!DOCTYPE svg PUBLIC "-//W3C//DTD SVG 20010904//EN"
 "http://www.w3.org/TR/2001/REC-SVG-20010904/DTD/svg10.dtd">
<svg version="1.0" xmlns="http://www.w3.org/2000/svg"
 width="90.000000pt" height="180.000000pt" viewBox="0 0 90.000000 180.000000"
 preserveAspectRatio="xMidYMid meet">
<metadata>
Created by potrace 1.13, written by Peter Selinger 2001-2015
</metadata>
<g transform="translate(0.000000,180.000000) scale(0.100000,-0.100000)"
fill="#000000" stroke="none">
<path d="M263 1332 c-25 -16 -31 -56 -16 -112 18 -66 7 -160 -32 -276 -31 -91
-31 -92 -1 -105 18 -9 32 -7 60 6 69 33 210 1 250 -57 21 -29 20 -100 0 -141
-9 -18 -37 -54 -63 -80 -25 -26 -60 -63 -78 -81 -17 -18 -46 -36 -63 -40 -50
-10 -178 -7 -185 4 -11 18 -54 11 -66 -11 -15 -29 10 -54 59 -56 20 0 69 -4
107 -8 52 -6 79 -4 105 7 42 18 170 124 170 141 0 7 16 30 36 52 20 22 43 54
50 72 19 45 18 129 -3 163 -30 52 -186 120 -274 120 l-47 0 23 93 c13 50 26
110 30 132 6 38 9 41 53 53 99 27 149 35 200 33 61 -2 102 18 102 49 0 35 -36
44 -98 25 -66 -21 -219 -15 -255 10 -23 16 -45 19 -64 7z"/>
</g>
</svg>
