<?xml version="1.0" standalone="no"?>
<!DOCTYPE svg PUBLIC "-//W3C//DTD SVG 20010904//EN"
 "http://www.w3.org/TR/2001/REC-SVG-20010904/DTD/svg10.dtd">
<svg version="1.0" xmlns="http://www.w3.org/2000/svg"
 width="90.000000pt" height="180.000000pt" viewBox="0 0 90.000000 180.000000"
 preserveAspectRatio="xMidYMid meet">
<metadata>
Created by potrace 1.13, written by Peter Selinger 2001-2015
</metadata>
<g transform="translate(0.000000,180.000000) scale(0.100000,-0.100000)"
fill="#000000" stroke="none">
<path d="M354 1345 c-53 -27 -125 -109 -134 -152 -28 -135 -55 -235 -81 -303
-32 -84 -46 -218 -27 -254 21 -39 81 -89 130 -107 68 -25 135 -34 161 -21 12
5 51 15 87 21 120 20 228 121 316 294 69 137 69 220 -1 275 -17 14 -25 30 -25
50 0 44 -54 91 -174 150 -117 58 -199 73 -252 47z m190 -116 c97 -50 103 -54
122 -93 28 -58 45 -86 71 -114 21 -23 24 -33 19 -67 -4 -22 -20 -67 -36 -99
-17 -32 -30 -64 -30 -71 0 -6 -17 -29 -39 -51 -114 -115 -151 -134 -265 -134
-47 0 -88 5 -91 10 -3 6 -15 10 -26 10 -11 0 -33 15 -50 32 -45 50 -41 101 24
273 17 46 34 112 52 205 11 55 18 69 51 97 65 54 95 54 198 2z"/>
</g>
</svg>
