<?xml version="1.0" standalone="no"?>
<!DOCTYPE svg PUBLIC "-//W3C//DTD SVG 20010904//EN"
 "http://www.w3.org/TR/2001/REC-SVG-20010904/DTD/svg10.dtd">
<svg version="1.0" xmlns="http://www.w3.org/2000/svg"
 width="90.000000pt" height="180.000000pt" viewBox="0 0 90.000000 180.000000"
 preserveAspectRatio="xMidYMid meet">
<metadata>
Created by potrace 1.13, written by Peter Selinger 2001-2015
</metadata>
<g transform="translate(0.000000,180.000000) scale(0.100000,-0.100000)"
fill="#000000" stroke="none">
<path d="M369 1462 c-54 -36 -127 -108 -144 -142 -15 -28 -17 -52 -12 -140 5
-110 29 -200 66 -251 l20 -26 -34 -33 c-35 -34 -43 -57 -65 -194 -6 -39 -6
-65 1 -78 14 -26 110 -68 156 -68 33 0 44 8 94 61 37 40 63 60 72 56 17 -6
117 -123 117 -136 0 -5 14 -14 30 -21 23 -10 37 -10 55 -2 53 24 20 90 -78
156 -91 60 -91 60 -19 126 69 62 79 95 34 111 -19 7 -32 -1 -90 -56 -37 -36
-70 -65 -73 -65 -7 0 -109 137 -109 145 0 3 18 36 41 73 22 37 47 82 55 100 7
18 41 71 74 117 43 59 60 92 60 115 0 111 -164 211 -251 152z m92 -72 c20 -6
45 -23 58 -41 l24 -32 -32 -61 c-45 -88 -79 -147 -94 -165 -8 -9 -26 -37 -41
-63 -15 -27 -30 -48 -34 -48 -20 0 -45 92 -49 185 -6 116 2 137 76 199 48 41
44 39 92 26z m-38 -639 c15 -18 27 -36 27 -40 0 -14 -69 -79 -90 -86 -28 -9
-66 17 -72 50 -3 14 4 54 15 88 11 34 22 69 24 77 4 15 20 1 96 -89z"/>
</g>
</svg>
