<?xml version="1.0" standalone="no"?>
<!DOCTYPE svg PUBLIC "-//W3C//DTD SVG 20010904//EN"
 "http://www.w3.org/TR/2001/REC-SVG-20010904/DTD/svg10.dtd">
<svg version="1.0" xmlns="http://www.w3.org/2000/svg"
 width="90.000000pt" height="180.000000pt" viewBox="0 0 90.000000 180.000000"
 preserveAspectRatio="xMidYMid meet">
<metadata>
Created by potrace 1.13, written by Peter Selinger 2001-2015
</metadata>
<g transform="translate(0.000000,180.000000) scale(0.100000,-0.100000)"
fill="#000000" stroke="none">
<path d="M207 1252 c-22 -25 -21 -65 2 -86 10 -9 60 -30 112 -47 106 -34 279
-116 323 -152 l28 -24 -98 -73 c-55 -40 -130 -101 -169 -134 -38 -34 -83 -67
-98 -74 -32 -14 -42 -33 -33 -66 13 -52 83 -35 110 27 27 63 187 188 285 223
77 27 90 36 100 66 13 38 0 65 -36 74 -15 4 -45 19 -67 34 -50 33 -103 61
-176 94 -101 46 -175 92 -179 112 -2 10 -8 25 -13 32 -16 18 -72 15 -91 -6z"/>
</g>
</svg>
