<?xml version="1.0" standalone="no"?>
<!DOCTYPE svg PUBLIC "-//W3C//DTD SVG 20010904//EN"
 "http://www.w3.org/TR/2001/REC-SVG-20010904/DTD/svg10.dtd">
<svg version="1.0" xmlns="http://www.w3.org/2000/svg"
 width="90.000000pt" height="180.000000pt" viewBox="0 0 90.000000 180.000000"
 preserveAspectRatio="xMidYMid meet">
<metadata>
Created by potrace 1.13, written by Peter Selinger 2001-2015
</metadata>
<g transform="translate(0.000000,180.000000) scale(0.100000,-0.100000)"
fill="#000000" stroke="none">
<path d="M283 1558 c-37 -41 -38 -65 -3 -96 27 -25 33 -40 44 -113 16 -103 20
-407 6 -424 -6 -7 -19 -36 -29 -66 -43 -119 -74 -185 -102 -214 -39 -41 -47
-85 -20 -109 40 -36 91 5 122 99 7 22 21 49 31 60 24 29 47 88 59 153 9 49 18
65 62 110 61 62 92 68 101 20 3 -18 1 -58 -4 -88 -25 -136 -24 -167 2 -207 13
-21 27 -46 31 -56 6 -16 21 -25 73 -41 14 -4 29 0 44 12 29 24 20 57 -20 70
-38 14 -72 78 -65 124 30 191 31 218 13 252 -35 69 -78 74 -166 17 l-60 -40 0
107 c0 59 -3 145 -7 192 -3 47 -8 116 -9 154 -3 58 -7 73 -26 88 -30 24 -52
23 -77 -4z"/>
</g>
</svg>
