<?xml version="1.0" standalone="no"?>
<!DOCTYPE svg PUBLIC "-//W3C//DTD SVG 20010904//EN"
 "http://www.w3.org/TR/2001/REC-SVG-20010904/DTD/svg10.dtd">
<svg version="1.0" xmlns="http://www.w3.org/2000/svg"
 width="90.000000pt" height="180.000000pt" viewBox="0 0 90.000000 180.000000"
 preserveAspectRatio="xMidYMid meet">
<metadata>
Created by potrace 1.13, written by Peter Selinger 2001-2015
</metadata>
<g transform="translate(0.000000,180.000000) scale(0.100000,-0.100000)"
fill="#000000" stroke="none">
<path d="M166 1537 c-17 -25 -20 -162 -14 -657 3 -294 3 -292 72 -345 42 -32
142 -65 197 -65 22 0 51 7 65 17 14 9 40 23 57 32 17 9 43 34 58 56 32 49 98
205 109 260 5 22 22 71 39 108 17 38 31 78 31 89 0 11 10 36 21 55 28 44 22
103 -19 227 -34 99 -50 116 -88 92 -31 -21 -30 -45 2 -121 40 -93 40 -119 -1
-240 -20 -59 -40 -117 -45 -129 -5 -11 -22 -64 -39 -117 -47 -150 -97 -219
-173 -239 -34 -10 -45 -8 -103 20 -105 50 -108 56 -100 273 5 138 3 202 -8
262 -20 111 -4 302 29 350 31 44 6 95 -46 95 -20 0 -35 -8 -44 -23z"/>
</g>
</svg>
