<?xml version="1.0" standalone="no"?>
<!DOCTYPE svg PUBLIC "-//W3C//DTD SVG 20010904//EN"
 "http://www.w3.org/TR/2001/REC-SVG-20010904/DTD/svg10.dtd">
<svg version="1.0" xmlns="http://www.w3.org/2000/svg"
 width="90.000000pt" height="180.000000pt" viewBox="0 0 90.000000 180.000000"
 preserveAspectRatio="xMidYMid meet">
<metadata>
Created by potrace 1.13, written by Peter Selinger 2001-2015
</metadata>
<g transform="translate(0.000000,180.000000) scale(0.100000,-0.100000)"
fill="#000000" stroke="none">
<path d="M580 1424 c-25 -8 -92 -19 -150 -24 -58 -6 -118 -14 -135 -18 -29 -7
-130 0 -205 13 -53 10 -90 -8 -90 -43 0 -23 8 -33 35 -48 29 -16 39 -16 68 -6
18 7 54 12 80 12 25 0 74 7 109 15 64 14 262 24 273 13 4 -3 -8 -28 -24 -55
-51 -82 -88 -174 -94 -233 -4 -37 -22 -87 -56 -155 -49 -99 -103 -227 -116
-275 -4 -14 -16 -44 -28 -68 l-21 -43 22 -21 c28 -28 85 -28 116 1 49 46 251
101 371 101 97 0 135 14 135 50 0 29 -38 47 -101 49 -45 2 -71 -4 -120 -28
-54 -25 -277 -87 -285 -79 -7 8 19 108 41 156 14 30 25 65 25 78 0 14 11 41
24 62 34 51 53 107 61 173 11 96 87 229 155 271 34 20 47 59 31 94 -13 28 -50
31 -121 8z"/>
</g>
</svg>
