<?xml version="1.0" standalone="no"?>
<!DOCTYPE svg PUBLIC "-//W3C//DTD SVG 20010904//EN"
 "http://www.w3.org/TR/2001/REC-SVG-20010904/DTD/svg10.dtd">
<svg version="1.0" xmlns="http://www.w3.org/2000/svg"
 width="90.000000pt" height="180.000000pt" viewBox="0 0 90.000000 180.000000"
 preserveAspectRatio="xMidYMid meet">
<metadata>
Created by potrace 1.13, written by Peter Selinger 2001-2015
</metadata>
<g transform="translate(0.000000,180.000000) scale(0.100000,-0.100000)"
fill="#000000" stroke="none">
<path d="M184 1472 c-6 -4 -17 -23 -24 -42 -11 -32 -10 -41 7 -75 19 -39 20
-46 7 -210 -7 -93 -13 -201 -14 -240 0 -38 -7 -97 -15 -130 -21 -87 -20 -132
5 -145 20 -11 59 -5 61 8 1 4 3 34 4 67 8 136 17 208 26 194 6 -10 33 -14 101
-15 80 0 100 -4 144 -27 28 -14 64 -37 80 -50 136 -114 224 -138 224 -62 0 30
-21 46 -120 95 -47 22 -107 54 -135 71 -27 16 -74 36 -102 45 -29 8 -53 19
-53 24 0 5 11 21 24 37 13 15 31 42 40 58 40 71 143 184 169 185 14 0 77 52
87 71 13 24 -7 77 -32 84 -30 10 -75 -13 -89 -47 -7 -16 -32 -49 -57 -71 -25
-23 -62 -64 -84 -92 -36 -46 -60 -74 -168 -195 l-39 -45 -1 97 c0 53 5 109 11
125 5 15 14 74 19 131 8 86 7 109 -6 133 -14 29 -45 38 -70 21z"/>
</g>
</svg>
