<?xml version="1.0" standalone="no"?>
<!DOCTYPE svg PUBLIC "-//W3C//DTD SVG 20010904//EN"
 "http://www.w3.org/TR/2001/REC-SVG-20010904/DTD/svg10.dtd">
<svg version="1.0" xmlns="http://www.w3.org/2000/svg"
 width="90.000000pt" height="180.000000pt" viewBox="0 0 90.000000 180.000000"
 preserveAspectRatio="xMidYMid meet">
<metadata>
Created by potrace 1.13, written by Peter Selinger 2001-2015
</metadata>
<g transform="translate(0.000000,180.000000) scale(0.100000,-0.100000)"
fill="#000000" stroke="none">
<path d="M391 1118 c-63 -37 -173 -146 -196 -194 -36 -75 -43 -286 -11 -330
20 -27 167 -37 221 -14 56 23 161 128 170 168 8 37 25 43 25 10 0 -71 55 -187
124 -265 23 -27 58 -30 80 -7 28 27 18 60 -38 130 -30 37 -57 77 -59 88 -3 12
-13 41 -22 66 -29 77 -45 149 -45 201 0 40 -5 55 -25 74 -31 31 -70 32 -89 3
-12 -19 -13 -38 -5 -105 10 -77 9 -85 -17 -150 -15 -37 -35 -75 -44 -85 -32
-30 -115 -59 -161 -56 l-43 3 -12 59 c-11 52 -9 66 10 125 19 59 70 141 87
141 3 0 19 11 35 25 16 14 40 28 54 31 83 16 120 36 120 64 0 24 -18 37 -65
44 -33 5 -49 1 -94 -26z"/>
</g>
</svg>
