<?xml version="1.0" standalone="no"?>
<!DOCTYPE svg PUBLIC "-//W3C//DTD SVG 20010904//EN"
 "http://www.w3.org/TR/2001/REC-SVG-20010904/DTD/svg10.dtd">
<svg version="1.0" xmlns="http://www.w3.org/2000/svg"
 width="90.000000pt" height="180.000000pt" viewBox="0 0 90.000000 180.000000"
 preserveAspectRatio="xMidYMid meet">
<metadata>
Created by potrace 1.13, written by Peter Selinger 2001-2015
</metadata>
<g transform="translate(0.000000,180.000000) scale(0.100000,-0.100000)"
fill="#000000" stroke="none">
<path d="M450 1171 c-42 -9 -87 -33 -163 -86 -71 -50 -86 -86 -77 -174 8 -85
27 -101 119 -101 98 0 231 -26 255 -50 19 -18 19 -20 2 -39 -49 -55 -209 -95
-357 -89 -81 3 -84 2 -87 -19 -4 -27 22 -40 112 -54 40 -7 69 -7 90 1 17 6 65
18 106 26 86 18 187 61 214 93 22 25 25 76 6 111 -17 31 -79 55 -200 74 -190
31 -175 23 -178 82 -3 47 0 54 27 77 31 25 128 67 157 67 9 0 27 -9 41 -20 29
-23 62 -26 85 -7 39 31 22 78 -38 103 -36 15 -58 16 -114 5z"/>
</g>
</svg>
