<?xml version="1.0" standalone="no"?>
<!DOCTYPE svg PUBLIC "-//W3C//DTD SVG 20010904//EN"
 "http://www.w3.org/TR/2001/REC-SVG-20010904/DTD/svg10.dtd">
<svg version="1.0" xmlns="http://www.w3.org/2000/svg"
 width="90.000000pt" height="180.000000pt" viewBox="0 0 90.000000 180.000000"
 preserveAspectRatio="xMidYMid meet">
<metadata>
Created by potrace 1.13, written by Peter Selinger 2001-2015
</metadata>
<g transform="translate(0.000000,180.000000) scale(0.100000,-0.100000)"
fill="#000000" stroke="none">
<path d="M325 1481 c-66 -31 -151 -127 -175 -195 -22 -64 -27 -164 -10 -213 6
-16 12 -65 14 -109 13 -276 43 -348 165 -395 73 -28 150 -35 218 -19 48 12 62
22 111 76 55 62 71 93 115 229 26 80 31 163 14 220 -22 72 -67 167 -91 191
-46 46 -80 99 -78 121 8 57 -56 97 -173 108 -57 5 -77 2 -110 -14z m147 -92
c9 -5 15 -16 12 -23 -3 -9 25 -47 68 -94 40 -44 78 -90 84 -103 6 -13 22 -46
34 -73 20 -43 22 -59 17 -135 -13 -183 -80 -309 -173 -327 -53 -10 -136 1
-181 25 -53 27 -74 73 -85 186 -5 50 -12 128 -17 175 -4 47 -13 97 -19 112
-13 30 -5 67 33 152 23 53 65 94 115 115 26 11 83 6 112 -10z"/>
</g>
</svg>
