<?xml version="1.0" standalone="no"?>
<!DOCTYPE svg PUBLIC "-//W3C//DTD SVG 20010904//EN"
 "http://www.w3.org/TR/2001/REC-SVG-20010904/DTD/svg10.dtd">
<svg version="1.0" xmlns="http://www.w3.org/2000/svg"
 width="90.000000pt" height="180.000000pt" viewBox="0 0 90.000000 180.000000"
 preserveAspectRatio="xMidYMid meet">
<metadata>
Created by potrace 1.13, written by Peter Selinger 2001-2015
</metadata>
<g transform="translate(0.000000,180.000000) scale(0.100000,-0.100000)"
fill="#000000" stroke="none">
<path d="M606 1429 c-15 -4 -88 -15 -162 -25 -109 -13 -139 -14 -164 -4 -31
13 -95 6 -117 -12 -24 -20 -15 -56 19 -72 39 -20 62 -20 115 0 24 9 46 14 50
11 7 -7 12 -609 5 -680 l-4 -49 -52 9 c-28 4 -75 8 -105 8 -46 0 -56 -4 -73
-25 -25 -34 -15 -57 32 -71 32 -10 50 -9 107 7 54 15 117 20 303 24 227 5 235
6 235 25 0 19 -8 20 -180 25 l-180 5 -2 25 c-1 14 -7 129 -13 257 l-12 231 26
90 c14 50 26 101 26 114 0 21 6 25 75 35 41 7 82 10 90 7 20 -8 45 13 45 37 0
25 -29 38 -64 28z"/>
</g>
</svg>
