<?xml version="1.0" standalone="no"?>
<!DOCTYPE svg PUBLIC "-//W3C//DTD SVG 20010904//EN"
 "http://www.w3.org/TR/2001/REC-SVG-20010904/DTD/svg10.dtd">
<svg version="1.0" xmlns="http://www.w3.org/2000/svg"
 width="90.000000pt" height="180.000000pt" viewBox="0 0 90.000000 180.000000"
 preserveAspectRatio="xMidYMid meet">
<metadata>
Created by potrace 1.13, written by Peter Selinger 2001-2015
</metadata>
<g transform="translate(0.000000,180.000000) scale(0.100000,-0.100000)"
fill="#000000" stroke="none">
<path d="M405 1520 c-33 -11 -66 -20 -74 -20 -25 0 -105 -54 -153 -103 -45
-47 -78 -119 -78 -175 0 -59 118 -131 260 -158 47 -9 115 -31 152 -47 58 -27
70 -37 88 -74 11 -23 23 -73 26 -110 6 -64 4 -72 -27 -132 -35 -67 -34 -66
-204 -171 -47 -29 -55 -31 -129 -27 -67 3 -82 1 -98 -15 -39 -39 -10 -77 60
-79 94 -2 118 3 187 37 77 38 148 86 211 142 29 26 45 51 54 82 6 25 18 65 26
90 8 25 14 56 14 69 0 42 -40 160 -63 185 -42 45 -187 107 -286 120 -57 9
-148 52 -165 79 -24 39 -9 93 43 148 37 41 60 55 121 76 135 46 234 42 258
-12 13 -29 41 -39 75 -26 61 24 36 105 -39 128 -62 18 -190 15 -259 -7z"/>
</g>
</svg>
