<?xml version="1.0" standalone="no"?>
<!DOCTYPE svg PUBLIC "-//W3C//DTD SVG 20010904//EN"
 "http://www.w3.org/TR/2001/REC-SVG-20010904/DTD/svg10.dtd">
<svg version="1.0" xmlns="http://www.w3.org/2000/svg"
 width="90.000000pt" height="180.000000pt" viewBox="0 0 90.000000 180.000000"
 preserveAspectRatio="xMidYMid meet">
<metadata>
Created by potrace 1.13, written by Peter Selinger 2001-2015
</metadata>
<g transform="translate(0.000000,180.000000) scale(0.100000,-0.100000)"
fill="#000000" stroke="none">
<path d="M230 1591 c-14 -28 -12 -58 10 -121 17 -48 19 -84 20 -283 0 -191 -3
-232 -16 -252 -12 -19 -13 -28 -3 -46 12 -24 5 -251 -10 -276 -4 -7 -5 -29 -3
-48 8 -64 78 -73 102 -14 11 27 11 36 -3 63 -21 39 -32 130 -23 190 6 40 10
46 32 46 14 0 39 -7 57 -16 42 -22 194 -130 233 -167 35 -32 67 -33 72 -1 2
14 -11 29 -45 54 -26 18 -88 65 -138 105 -49 39 -103 79 -119 89 l-28 18 115
59 c64 32 127 59 141 59 41 0 72 20 89 55 15 32 15 35 -2 56 -21 26 -50 22
-102 -16 -105 -76 -256 -165 -282 -165 -5 0 -7 135 -6 300 2 285 1 301 -17
315 -27 20 -61 18 -74 -4z"/>
</g>
</svg>
