<?xml version="1.0" standalone="no"?>
<!DOCTYPE svg PUBLIC "-//W3C//DTD SVG 20010904//EN"
 "http://www.w3.org/TR/2001/REC-SVG-20010904/DTD/svg10.dtd">
<svg version="1.0" xmlns="http://www.w3.org/2000/svg"
 width="90.000000pt" height="180.000000pt" viewBox="0 0 90.000000 180.000000"
 preserveAspectRatio="xMidYMid meet">
<metadata>
Created by potrace 1.13, written by Peter Selinger 2001-2015
</metadata>
<g transform="translate(0.000000,180.000000) scale(0.100000,-0.100000)"
fill="#000000" stroke="none">
<path d="M643 1382 c-19 -12 -33 -60 -33 -115 0 -29 -9 -70 -19 -92 -24 -53
-117 -154 -169 -183 l-41 -23 -27 48 c-15 26 -49 84 -76 127 -27 44 -53 99
-58 124 -13 75 -67 108 -113 71 -31 -24 -35 -58 -11 -94 14 -21 16 -55 15
-220 -1 -127 -7 -220 -17 -268 -27 -132 -27 -142 -9 -160 24 -24 62 -21 79 5
11 18 14 72 15 243 1 121 5 237 9 258 l7 39 31 -45 c18 -24 35 -55 39 -68 4
-13 21 -56 37 -96 23 -53 36 -73 53 -77 34 -9 71 9 91 41 19 30 223 233 234
233 15 0 17 -157 6 -423 -5 -128 -4 -139 14 -157 24 -24 39 -25 66 -6 17 13
19 29 21 173 3 354 3 364 -22 418 -17 36 -24 73 -27 131 -2 63 -7 87 -22 103
-19 21 -51 27 -73 13z"/>
</g>
</svg>
