<?xml version="1.0" standalone="no"?>
<!DOCTYPE svg PUBLIC "-//W3C//DTD SVG 20010904//EN"
 "http://www.w3.org/TR/2001/REC-SVG-20010904/DTD/svg10.dtd">
<svg version="1.0" xmlns="http://www.w3.org/2000/svg"
 width="90.000000pt" height="180.000000pt" viewBox="0 0 90.000000 180.000000"
 preserveAspectRatio="xMidYMid meet">
<metadata>
Created by potrace 1.13, written by Peter Selinger 2001-2015
</metadata>
<g transform="translate(0.000000,180.000000) scale(0.100000,-0.100000)"
fill="#000000" stroke="none">
<path d="M614 1480 c-32 -13 -36 -24 -39 -103 -2 -50 2 -89 15 -127 10 -30 17
-66 15 -80 -3 -14 -12 -99 -21 -190 -9 -91 -20 -169 -25 -174 -4 -5 -31 17
-61 49 -29 33 -63 70 -76 83 -12 14 -22 30 -22 36 0 10 -25 46 -145 207 -23
30 -62 90 -88 134 -26 44 -55 90 -65 101 -19 22 -73 54 -92 54 -6 0 -10 -38
-10 -105 0 -85 4 -113 19 -143 12 -24 25 -88 36 -177 9 -77 26 -170 37 -207
13 -45 18 -80 14 -102 -6 -29 -2 -40 25 -70 48 -56 107 -43 95 21 -6 32 -49
144 -73 187 -11 19 -18 72 -24 165 -8 140 -14 173 -43 230 -17 32 -13 61 4 31
5 -8 23 -35 42 -59 18 -24 40 -53 47 -65 8 -12 39 -53 67 -92 29 -39 70 -109
92 -155 23 -47 56 -99 76 -118 19 -18 38 -41 41 -51 6 -19 111 -110 127 -110
19 0 58 50 59 77 3 163 13 275 30 367 18 92 19 118 10 164 -14 72 -14 117 1
160 12 31 11 35 -11 53 -26 21 -27 21 -57 9z"/>
</g>
</svg>
