<?xml version="1.0" standalone="no"?>
<!DOCTYPE svg PUBLIC "-//W3C//DTD SVG 20010904//EN"
 "http://www.w3.org/TR/2001/REC-SVG-20010904/DTD/svg10.dtd">
<svg version="1.0" xmlns="http://www.w3.org/2000/svg"
 width="90.000000pt" height="180.000000pt" viewBox="0 0 90.000000 180.000000"
 preserveAspectRatio="xMidYMid meet">
<metadata>
Created by potrace 1.13, written by Peter Selinger 2001-2015
</metadata>
<g transform="translate(0.000000,180.000000) scale(0.100000,-0.100000)"
fill="#000000" stroke="none">
<path d="M332 1468 c-18 -18 -15 -63 6 -80 44 -39 122 -23 122 25 0 33 -13 46
-51 57 -45 13 -62 13 -77 -2z"/>
<path d="M342 1098 c-19 -19 -14 -84 8 -126 19 -34 21 -52 19 -245 -3 -219 -1
-226 43 -227 40 0 59 50 38 104 -8 21 -14 320 -8 423 3 58 -65 106 -100 71z"/>
</g>
</svg>
