<?xml version="1.0" standalone="no"?>
<!DOCTYPE svg PUBLIC "-//W3C//DTD SVG 20010904//EN"
 "http://www.w3.org/TR/2001/REC-SVG-20010904/DTD/svg10.dtd">
<svg version="1.0" xmlns="http://www.w3.org/2000/svg"
 width="90.000000pt" height="180.000000pt" viewBox="0 0 90.000000 180.000000"
 preserveAspectRatio="xMidYMid meet">
<metadata>
Created by potrace 1.13, written by Peter Selinger 2001-2015
</metadata>
<g transform="translate(0.000000,180.000000) scale(0.100000,-0.100000)"
fill="#000000" stroke="none">
<path d="M342 1328 c-27 -13 -38 -52 -26 -87 5 -14 8 -54 6 -89 l-3 -63 -32 7
c-50 12 -123 9 -141 -5 -20 -17 -21 -55 -2 -70 22 -18 119 -26 145 -11 13 6
24 10 26 8 2 -3 -4 -45 -22 -145 -5 -32 -7 -33 -52 -33 -56 0 -93 -23 -89 -53
4 -29 43 -47 100 -47 43 0 46 -2 41 -22 -3 -13 -9 -27 -13 -33 -18 -27 -38
-95 -33 -114 8 -33 50 -46 80 -26 21 14 24 23 22 73 0 31 2 76 6 100 l8 42 46
0 c25 0 63 3 85 7 l39 6 -7 -59 c-4 -32 -9 -78 -12 -101 -5 -35 -3 -43 15 -52
15 -9 27 -9 42 -1 18 10 20 20 19 83 -3 136 -8 124 60 132 43 5 63 12 70 25
17 31 -11 49 -66 42 l-46 -5 6 29 c6 28 25 162 26 177 0 4 11 7 24 7 24 0 56
23 56 40 0 15 -42 39 -57 33 -16 -6 -15 30 3 131 7 43 -3 56 -48 56 -44 0 -63
-40 -63 -130 l0 -75 -77 -3 -78 -3 0 44 c0 25 7 64 15 87 19 55 19 57 -10 85
-27 28 -30 28 -63 13z m215 -379 c-3 -56 -9 -105 -14 -109 -4 -5 -46 -12 -92
-16 l-84 -7 5 102 c3 56 7 104 10 107 3 2 41 8 84 13 44 5 83 9 88 10 5 0 6
-43 3 -100z"/>
</g>
</svg>
