<?xml version="1.0" standalone="no"?>
<!DOCTYPE svg PUBLIC "-//W3C//DTD SVG 20010904//EN"
 "http://www.w3.org/TR/2001/REC-SVG-20010904/DTD/svg10.dtd">
<svg version="1.0" xmlns="http://www.w3.org/2000/svg"
 width="90.000000pt" height="180.000000pt" viewBox="0 0 90.000000 180.000000"
 preserveAspectRatio="xMidYMid meet">
<metadata>
Created by potrace 1.13, written by Peter Selinger 2001-2015
</metadata>
<g transform="translate(0.000000,180.000000) scale(0.100000,-0.100000)"
fill="#000000" stroke="none">
<path d="M391 1490 c-93 -14 -129 -16 -189 -7 -69 10 -76 9 -89 -9 -10 -13
-12 -29 -7 -54 8 -38 9 -91 5 -280 -2 -124 -20 -253 -48 -360 -22 -82 -25
-248 -5 -280 9 -14 15 -36 13 -50 -1 -16 6 -33 19 -45 20 -18 22 -18 108 3
138 35 502 55 571 31 43 -15 81 1 81 35 0 38 -22 48 -92 42 -174 -15 -510 -25
-534 -16 -14 6 -36 10 -50 10 -17 0 -28 8 -36 28 -14 33 -12 202 4 295 l11 67
49 0 c51 0 118 22 118 39 0 6 17 13 38 16 20 4 53 12 72 18 19 6 68 13 109 16
55 5 77 10 85 23 8 14 7 22 -6 35 -15 14 -23 15 -56 5 -22 -7 -64 -12 -95 -12
-31 0 -68 -5 -84 -11 -15 -6 -59 -14 -98 -19 -38 -4 -80 -11 -91 -15 -21 -6
-21 -5 -17 92 3 54 9 111 14 127 5 16 9 55 9 87 l0 57 63 31 c41 20 97 36 162
46 147 23 160 27 163 53 3 20 -1 22 -40 21 -24 -1 -94 -9 -157 -19z"/>
</g>
</svg>
