<?xml version="1.0" standalone="no"?>
<!DOCTYPE svg PUBLIC "-//W3C//DTD SVG 20010904//EN"
 "http://www.w3.org/TR/2001/REC-SVG-20010904/DTD/svg10.dtd">
<svg version="1.0" xmlns="http://www.w3.org/2000/svg"
 width="90.000000pt" height="180.000000pt" viewBox="0 0 90.000000 180.000000"
 preserveAspectRatio="xMidYMid meet">
<metadata>
Created by potrace 1.13, written by Peter Selinger 2001-2015
</metadata>
<g transform="translate(0.000000,180.000000) scale(0.100000,-0.100000)"
fill="#000000" stroke="none">
<path d="M720 1527 c-13 -7 -28 -25 -33 -42 -12 -39 -127 -213 -191 -290 -28
-33 -52 -62 -53 -64 -10 -14 -142 240 -143 273 0 18 -81 106 -98 106 -6 0 -20
-8 -32 -18 l-23 -19 18 -48 c12 -30 29 -54 49 -66 31 -19 77 -84 128 -184 27
-51 31 -70 31 -130 -1 -43 6 -92 18 -126 10 -30 23 -116 30 -190 11 -118 16
-142 45 -203 19 -38 31 -72 28 -77 -2 -5 2 -21 10 -37 27 -52 89 -49 103 5 5
21 -2 42 -25 84 -18 32 -32 71 -32 87 0 16 -6 35 -14 41 -7 6 -16 34 -19 62
-4 28 -11 56 -16 63 -5 6 -9 40 -10 75 0 35 -3 72 -6 82 -4 10 1 29 9 41 18
25 21 64 6 73 -5 3 -10 13 -10 20 0 35 99 176 200 286 86 94 110 126 110 148
0 44 -41 68 -80 48z"/>
</g>
</svg>
