<?xml version="1.0" standalone="no"?>
<!DOCTYPE svg PUBLIC "-//W3C//DTD SVG 20010904//EN"
 "http://www.w3.org/TR/2001/REC-SVG-20010904/DTD/svg10.dtd">
<svg version="1.0" xmlns="http://www.w3.org/2000/svg"
 width="90.000000pt" height="180.000000pt" viewBox="0 0 90.000000 180.000000"
 preserveAspectRatio="xMidYMid meet">
<metadata>
Created by potrace 1.13, written by Peter Selinger 2001-2015
</metadata>
<g transform="translate(0.000000,180.000000) scale(0.100000,-0.100000)"
fill="#000000" stroke="none">
<path d="M730 1413 c-25 -8 -61 -23 -80 -33 -20 -10 -94 -28 -165 -40 -115
-19 -140 -21 -219 -11 -79 11 -91 10 -107 -5 -31 -28 -32 -52 -5 -98 14 -23
34 -76 44 -117 17 -65 22 -74 42 -74 36 0 46 27 32 80 -7 25 -12 61 -12 80 0
44 21 53 185 84 66 13 139 27 162 32 23 5 50 9 59 9 16 0 16 -2 -2 -22 -35
-39 -50 -71 -73 -148 -12 -41 -28 -88 -36 -105 -26 -58 -35 -111 -41 -240 -10
-199 -9 -236 10 -290 9 -27 20 -61 24 -75 6 -19 15 -26 39 -28 47 -5 59 24 34
80 -32 70 -49 140 -46 188 13 230 19 276 40 324 12 28 34 87 50 131 25 74 32
84 96 139 77 67 96 102 73 135 -17 24 -40 25 -104 4z"/>
</g>
</svg>
