<?xml version="1.0" standalone="no"?>
<!DOCTYPE svg PUBLIC "-//W3C//DTD SVG 20010904//EN"
 "http://www.w3.org/TR/2001/REC-SVG-20010904/DTD/svg10.dtd">
<svg version="1.0" xmlns="http://www.w3.org/2000/svg"
 width="90.000000pt" height="180.000000pt" viewBox="0 0 90.000000 180.000000"
 preserveAspectRatio="xMidYMid meet">
<metadata>
Created by potrace 1.13, written by Peter Selinger 2001-2015
</metadata>
<g transform="translate(0.000000,180.000000) scale(0.100000,-0.100000)"
fill="#000000" stroke="none">
<path d="M606 1414 c-26 -26 -21 -111 10 -164 25 -43 26 -50 20 -145 -4 -75
-12 -117 -31 -164 -14 -35 -31 -100 -38 -145 -12 -86 -34 -137 -48 -114 -5 7
-9 27 -9 44 0 17 -9 53 -21 79 -14 33 -21 69 -21 116 -1 62 -4 72 -26 89 -29
23 -58 26 -77 7 -21 -21 -66 -115 -96 -201 -23 -65 -48 -113 -50 -95 0 2 -1
85 -3 184 -3 128 -8 199 -21 245 -12 48 -15 85 -10 141 6 72 5 78 -18 103 -27
29 -68 34 -87 11 -7 -9 -10 -30 -7 -52 8 -65 46 -222 58 -245 9 -16 10 -65 4
-183 -17 -316 -6 -395 54 -395 40 0 70 37 91 116 21 79 90 254 100 254 3 0 14
-36 24 -79 10 -44 25 -92 32 -107 8 -14 14 -38 14 -51 0 -39 21 -100 42 -123
10 -11 31 -20 47 -20 46 0 64 31 78 133 23 173 42 272 61 312 39 82 53 277 23
333 -6 11 -11 40 -11 64 0 24 -5 49 -12 56 -17 17 -54 15 -72 -4z"/>
</g>
</svg>
