<?xml version="1.0" standalone="no"?>
<!DOCTYPE svg PUBLIC "-//W3C//DTD SVG 20010904//EN"
 "http://www.w3.org/TR/2001/REC-SVG-20010904/DTD/svg10.dtd">
<svg version="1.0" xmlns="http://www.w3.org/2000/svg"
 width="90.000000pt" height="180.000000pt" viewBox="0 0 90.000000 180.000000"
 preserveAspectRatio="xMidYMid meet">
<metadata>
Created by potrace 1.13, written by Peter Selinger 2001-2015
</metadata>
<g transform="translate(0.000000,180.000000) scale(0.100000,-0.100000)"
fill="#000000" stroke="none">
<path d="M434 1645 c-116 -53 -212 -239 -202 -392 4 -65 26 -108 64 -128 23
-12 117 -114 134 -145 10 -18 6 -29 -26 -76 -45 -65 -60 -78 -99 -91 -25 -8
-31 -16 -33 -44 -2 -19 4 -43 12 -54 12 -16 18 -18 37 -8 49 23 59 23 75 -2
21 -33 16 -66 -37 -224 -38 -113 -40 -128 -30 -163 18 -60 78 -98 152 -98 32
0 61 5 64 10 3 6 21 10 39 10 36 0 49 21 39 61 -5 18 -11 20 -37 14 -17 -4
-58 -8 -90 -10 -54 -2 -62 0 -92 29 l-33 31 45 135 c24 74 44 151 44 171 0 19
-11 57 -24 84 l-25 48 25 30 c46 55 67 107 61 154 -4 35 -15 54 -58 101 -29
31 -66 65 -82 74 -17 9 -41 36 -55 59 -21 35 -24 49 -18 93 7 65 57 166 104
212 32 31 41 34 81 32 l46 -3 3 43 c3 39 -10 73 -27 71 -3 0 -29 -11 -57 -24z"/>
</g>
</svg>
