<?xml version="1.0" standalone="no"?>
<!DOCTYPE svg PUBLIC "-//W3C//DTD SVG 20010904//EN"
 "http://www.w3.org/TR/2001/REC-SVG-20010904/DTD/svg10.dtd">
<svg version="1.0" xmlns="http://www.w3.org/2000/svg"
 width="90.000000pt" height="180.000000pt" viewBox="0 0 90.000000 180.000000"
 preserveAspectRatio="xMidYMid meet">
<metadata>
Created by potrace 1.13, written by Peter Selinger 2001-2015
</metadata>
<g transform="translate(0.000000,180.000000) scale(0.100000,-0.100000)"
fill="#000000" stroke="none">
<path d="M578 1573 c-12 -13 -19 -47 -24 -110 -6 -87 -6 -91 15 -103 34 -17
71 10 71 53 0 17 10 52 21 77 20 43 20 45 1 70 -23 31 -62 37 -84 13z"/>
<path d="M322 1543 c-23 -9 -31 -47 -20 -96 8 -38 15 -48 34 -53 31 -8 59 16
74 62 21 63 -28 111 -88 87z"/>
</g>
</svg>
