<?xml version="1.0" standalone="no"?>
<!DOCTYPE svg PUBLIC "-//W3C//DTD SVG 20010904//EN"
 "http://www.w3.org/TR/2001/REC-SVG-20010904/DTD/svg10.dtd">
<svg version="1.0" xmlns="http://www.w3.org/2000/svg"
 width="90.000000pt" height="180.000000pt" viewBox="0 0 90.000000 180.000000"
 preserveAspectRatio="xMidYMid meet">
<metadata>
Created by potrace 1.13, written by Peter Selinger 2001-2015
</metadata>
<g transform="translate(0.000000,180.000000) scale(0.100000,-0.100000)"
fill="#000000" stroke="none">
<path d="M390 1440 c-11 -11 -20 -24 -20 -29 0 -16 41 -61 56 -61 22 0 17 -10
-36 -66 -27 -29 -50 -62 -50 -73 0 -18 26 -41 45 -41 4 0 40 32 81 72 58 56
74 77 74 100 0 26 -38 91 -65 110 -19 14 -65 8 -85 -12z"/>
</g>
</svg>
