<?xml version="1.0" standalone="no"?>
<!DOCTYPE svg PUBLIC "-//W3C//DTD SVG 20010904//EN"
 "http://www.w3.org/TR/2001/REC-SVG-20010904/DTD/svg10.dtd">
<svg version="1.0" xmlns="http://www.w3.org/2000/svg"
 width="90.000000pt" height="180.000000pt" viewBox="0 0 90.000000 180.000000"
 preserveAspectRatio="xMidYMid meet">
<metadata>
Created by potrace 1.13, written by Peter Selinger 2001-2015
</metadata>
<g transform="translate(0.000000,180.000000) scale(0.100000,-0.100000)"
fill="#000000" stroke="none">
<path d="M500 1210 c-14 -4 -43 -8 -65 -9 -24 -1 -68 -15 -112 -38 -72 -35
-75 -38 -126 -127 -51 -89 -52 -93 -52 -171 0 -78 1 -83 49 -165 64 -110 76
-123 144 -153 44 -20 82 -27 168 -32 135 -9 144 -5 235 97 91 101 99 119 99
225 0 145 -46 235 -145 283 -23 11 -57 34 -76 51 -32 29 -71 50 -87 48 -4 -1
-18 -5 -32 -9z m39 -104 c10 -9 27 -16 39 -16 11 0 40 -15 65 -34 24 -19 54
-39 65 -45 28 -15 62 -110 62 -174 0 -68 -35 -143 -93 -201 -55 -55 -87 -62
-214 -49 -93 10 -95 11 -139 54 -26 25 -62 78 -85 124 -48 96 -47 126 14 227
47 80 70 103 122 123 48 18 140 13 164 -9z"/>
</g>
</svg>
