<?xml version="1.0" standalone="no"?>
<!DOCTYPE svg PUBLIC "-//W3C//DTD SVG 20010904//EN"
 "http://www.w3.org/TR/2001/REC-SVG-20010904/DTD/svg10.dtd">
<svg version="1.0" xmlns="http://www.w3.org/2000/svg"
 width="90.000000pt" height="180.000000pt" viewBox="0 0 90.000000 180.000000"
 preserveAspectRatio="xMidYMid meet">
<metadata>
Created by potrace 1.13, written by Peter Selinger 2001-2015
</metadata>
<g transform="translate(0.000000,180.000000) scale(0.100000,-0.100000)"
fill="#000000" stroke="none">
<path d="M419 1482 c-24 -20 -24 -16 -14 -182 l6 -95 -45 -28 c-67 -42 -121
-119 -117 -168 1 -23 71 -49 131 -49 47 0 50 -2 46 -22 -3 -13 -10 -63 -16
-113 -6 -49 -13 -105 -17 -124 l-6 -34 -88 5 c-90 6 -109 0 -109 -33 0 -40 42
-50 137 -32 l51 10 7 -71 c7 -77 25 -116 53 -116 48 1 59 54 23 116 -23 39
-28 83 -8 88 242 65 315 93 338 130 52 85 -13 202 -130 236 -20 6 -68 14 -108
17 l-71 6 -4 66 c-5 85 5 95 87 87 33 -3 79 -9 103 -12 47 -7 82 13 82 47 0
27 -50 62 -80 55 -14 -3 -52 -11 -85 -16 -33 -6 -71 -13 -85 -15 -25 -5 -25
-5 -21 57 1 34 9 71 17 82 30 43 6 126 -35 126 -11 0 -29 -8 -42 -18z m5 -404
c5 -41 3 -48 -12 -48 -29 0 -62 12 -62 21 0 18 53 90 60 82 4 -4 10 -29 14
-55z m232 -137 c36 -16 44 -26 59 -70 9 -29 15 -57 12 -64 -10 -27 -257 -130
-273 -114 -3 2 3 64 12 136 l18 131 65 0 c43 0 81 -7 107 -19z"/>
</g>
</svg>
