<?xml version="1.0" standalone="no"?>
<!DOCTYPE svg PUBLIC "-//W3C//DTD SVG 20010904//EN"
 "http://www.w3.org/TR/2001/REC-SVG-20010904/DTD/svg10.dtd">
<svg version="1.0" xmlns="http://www.w3.org/2000/svg"
 width="90.000000pt" height="180.000000pt" viewBox="0 0 90.000000 180.000000"
 preserveAspectRatio="xMidYMid meet">
<metadata>
Created by potrace 1.13, written by Peter Selinger 2001-2015
</metadata>
<g transform="translate(0.000000,180.000000) scale(0.100000,-0.100000)"
fill="#000000" stroke="none">
<path d="M421 1414 c-13 -9 -29 -31 -36 -48 -7 -17 -34 -65 -59 -106 -27 -44
-46 -86 -46 -103 0 -16 -13 -68 -29 -116 -17 -47 -35 -117 -42 -156 -6 -38
-18 -74 -25 -78 -16 -9 -18 -38 -5 -53 6 -5 4 -37 -5 -79 -32 -163 -5 -274 75
-310 80 -36 250 0 328 68 19 17 48 60 65 96 16 35 38 76 49 89 15 19 19 41 19
94 0 66 -2 70 -37 108 -28 29 -57 47 -110 65 -40 14 -85 25 -99 25 -40 0 -105
-21 -144 -47 -36 -24 -60 -29 -60 -14 0 33 35 150 70 230 22 52 40 105 40 117
0 14 21 42 60 77 76 71 88 95 65 131 -20 30 -41 33 -74 10z m143 -606 c29 -18
61 -43 71 -56 16 -23 17 -26 1 -58 -9 -19 -16 -42 -16 -52 0 -9 -12 -35 -25
-57 -14 -22 -25 -47 -25 -56 0 -18 -41 -59 -90 -88 -27 -16 -52 -21 -107 -21
-93 0 -118 10 -131 52 -20 66 -23 147 -7 217 17 75 6 64 135 124 78 36 129 35
194 -5z"/>
</g>
</svg>
