<?xml version="1.0" standalone="no"?>
<!DOCTYPE svg PUBLIC "-//W3C//DTD SVG 20010904//EN"
 "http://www.w3.org/TR/2001/REC-SVG-20010904/DTD/svg10.dtd">
<svg version="1.0" xmlns="http://www.w3.org/2000/svg"
 width="90.000000pt" height="180.000000pt" viewBox="0 0 90.000000 180.000000"
 preserveAspectRatio="xMidYMid meet">
<metadata>
Created by potrace 1.13, written by Peter Selinger 2001-2015
</metadata>
<g transform="translate(0.000000,180.000000) scale(0.100000,-0.100000)"
fill="#000000" stroke="none">
<path d="M438 1530 c-108 -13 -163 -51 -230 -157 -76 -121 -79 -136 -79 -431
1 -128 24 -289 50 -340 22 -43 93 -105 145 -127 49 -21 106 -19 174 5 76 27
144 75 176 124 22 34 26 37 26 17 0 -39 31 -145 47 -163 21 -23 65 -23 86 0
20 22 21 41 3 65 -8 10 -19 57 -26 105 -6 48 -15 114 -21 146 -7 47 -6 65 5
82 8 11 18 41 21 65 4 24 11 67 17 94 13 62 13 66 -2 144 -9 45 -21 73 -44 98
-41 47 -59 98 -40 114 17 14 18 50 2 72 -19 24 -105 67 -157 77 -25 5 -55 11
-66 14 -11 2 -50 0 -87 -4z m154 -96 c35 -7 49 -31 36 -60 -9 -18 -5 -32 21
-76 17 -29 46 -70 63 -91 32 -37 32 -39 32 -143 -1 -66 -5 -109 -12 -116 -9
-9 -12 -9 -12 -1 0 6 -21 22 -47 34 -99 48 -343 20 -388 -44 -21 -31 -19 -63
7 -81 42 -29 83 -14 101 37 8 22 37 33 114 42 85 9 143 -16 172 -75 l20 -42
-40 -83 c-23 -48 -53 -95 -72 -111 -37 -32 -118 -71 -163 -80 -40 -7 -96 20
-146 73 -46 47 -56 101 -64 328 -3 88 -7 165 -9 172 -2 7 0 25 4 40 5 15 17
55 26 88 17 56 27 71 126 189 19 22 126 22 231 0z"/>
</g>
</svg>
