<?xml version="1.0" standalone="no"?>
<!DOCTYPE svg PUBLIC "-//W3C//DTD SVG 20010904//EN"
 "http://www.w3.org/TR/2001/REC-SVG-20010904/DTD/svg10.dtd">
<svg version="1.0" xmlns="http://www.w3.org/2000/svg"
 width="90.000000pt" height="180.000000pt" viewBox="0 0 90.000000 180.000000"
 preserveAspectRatio="xMidYMid meet">
<metadata>
Created by potrace 1.13, written by Peter Selinger 2001-2015
</metadata>
<g transform="translate(0.000000,180.000000) scale(0.100000,-0.100000)"
fill="#000000" stroke="none">
<path d="M403 1069 c-37 -18 -72 -44 -85 -62 -12 -18 -41 -56 -66 -85 -30 -36
-46 -65 -49 -91 -7 -52 13 -137 46 -188 14 -22 34 -55 43 -71 10 -18 37 -41
67 -56 42 -22 64 -26 133 -26 122 1 289 49 322 93 18 24 18 27 2 51 -20 31
-48 33 -73 7 -10 -10 -46 -33 -80 -50 -52 -26 -76 -31 -136 -33 -63 -1 -82 3
-133 28 -54 27 -60 34 -76 79 -9 28 -17 53 -17 56 -1 4 14 9 32 12 18 3 73 25
122 49 205 99 265 233 132 297 -60 29 -110 27 -184 -10z m137 -59 c11 -6 22
-26 26 -46 8 -45 -15 -72 -96 -108 -52 -23 -67 -26 -124 -20 l-65 7 14 26 c15
29 109 122 140 139 25 14 81 15 105 2z"/>
</g>
</svg>
