<?xml version="1.0" standalone="no"?>
<!DOCTYPE svg PUBLIC "-//W3C//DTD SVG 20010904//EN"
 "http://www.w3.org/TR/2001/REC-SVG-20010904/DTD/svg10.dtd">
<svg version="1.0" xmlns="http://www.w3.org/2000/svg"
 width="90.000000pt" height="180.000000pt" viewBox="0 0 90.000000 180.000000"
 preserveAspectRatio="xMidYMid meet">
<metadata>
Created by potrace 1.13, written by Peter Selinger 2001-2015
</metadata>
<g transform="translate(0.000000,180.000000) scale(0.100000,-0.100000)"
fill="#000000" stroke="none">
<path d="M103 1148 c-45 -21 -40 -55 19 -130 32 -41 66 -160 87 -308 15 -99
21 -114 48 -118 38 -6 64 29 78 104 14 73 61 243 70 252 3 3 5 -2 5 -12 0 -9
8 -36 19 -59 10 -23 22 -58 26 -77 4 -19 20 -61 36 -92 16 -32 29 -71 29 -87
0 -33 22 -61 49 -61 26 0 41 22 48 67 3 21 16 74 29 118 13 44 28 121 35 170
6 50 18 102 25 117 20 38 17 65 -6 78 -42 22 -55 0 -69 -117 -15 -130 -35
-217 -60 -256 l-18 -29 -25 64 c-15 38 -28 95 -32 143 -9 108 -14 123 -48 141
-26 13 -32 14 -52 1 -23 -16 -35 -45 -66 -164 -11 -40 -30 -93 -43 -120 l-25
-47 -7 54 c-4 30 -20 120 -36 200 -22 115 -32 149 -50 162 -24 20 -35 21 -66
6z"/>
</g>
</svg>
