<?xml version="1.0" standalone="no"?>
<!DOCTYPE svg PUBLIC "-//W3C//DTD SVG 20010904//EN"
 "http://www.w3.org/TR/2001/REC-SVG-20010904/DTD/svg10.dtd">
<svg version="1.0" xmlns="http://www.w3.org/2000/svg"
 width="90.000000pt" height="180.000000pt" viewBox="0 0 90.000000 180.000000"
 preserveAspectRatio="xMidYMid meet">
<metadata>
Created by potrace 1.13, written by Peter Selinger 2001-2015
</metadata>
<g transform="translate(0.000000,180.000000) scale(0.100000,-0.100000)"
fill="#000000" stroke="none">
<path d="M280 1508 c-77 -10 -111 -32 -124 -79 -15 -57 -7 -246 14 -324 22
-81 19 -258 -5 -380 -23 -117 -38 -262 -31 -299 9 -50 50 -79 96 -71 53 10
174 81 203 119 15 18 60 59 101 90 84 63 201 191 223 244 22 52 9 117 -32 167
-29 36 -139 102 -200 120 -21 7 -23 5 60 50 17 9 52 35 79 59 42 37 49 49 53
89 3 26 0 59 -6 74 -12 28 -97 101 -135 116 -87 36 -171 43 -296 25z m248 -85
c45 -28 102 -93 102 -116 0 -38 -94 -120 -175 -152 -95 -38 -187 -57 -197 -42
-27 43 -32 197 -7 213 5 3 9 20 9 38 0 39 14 53 72 72 51 16 162 9 196 -13z
m8 -394 c75 -28 148 -101 152 -153 2 -30 -6 -46 -59 -113 -33 -43 -89 -100
-124 -128 -35 -27 -79 -62 -97 -77 -34 -27 -145 -88 -162 -88 -5 0 -5 19 -1
43 4 23 9 105 11 182 2 77 6 160 9 185 2 25 4 64 4 88 1 39 3 42 29 42 15 1
52 9 82 20 70 25 87 25 156 -1z"/>
</g>
</svg>
