<?xml version="1.0" standalone="no"?>
<!DOCTYPE svg PUBLIC "-//W3C//DTD SVG 20010904//EN"
 "http://www.w3.org/TR/2001/REC-SVG-20010904/DTD/svg10.dtd">
<svg version="1.0" xmlns="http://www.w3.org/2000/svg"
 width="90.000000pt" height="180.000000pt" viewBox="0 0 90.000000 180.000000"
 preserveAspectRatio="xMidYMid meet">
<metadata>
Created by potrace 1.13, written by Peter Selinger 2001-2015
</metadata>
<g transform="translate(0.000000,180.000000) scale(0.100000,-0.100000)"
fill="#000000" stroke="none">
<path d="M219 1144 c-11 -13 -10 -26 6 -77 16 -50 19 -91 19 -217 -1 -134 -4
-170 -28 -265 -15 -60 -33 -175 -41 -254 -12 -127 -12 -147 1 -173 13 -24 20
-29 47 -26 62 6 79 89 62 311 -7 94 -7 97 14 97 26 0 103 18 158 37 81 28 173
166 173 259 0 106 -31 162 -110 196 -56 24 -132 19 -165 -12 -28 -26 -35 -25
-35 6 0 32 -20 104 -33 122 -13 17 -52 15 -68 -4z m276 -206 c39 -27 60 -86
46 -134 -20 -66 -44 -114 -66 -128 -27 -18 -161 -44 -171 -33 -4 4 1 54 12
112 21 118 56 190 96 198 43 8 48 7 83 -15z"/>
</g>
</svg>
