<?xml version="1.0" standalone="no"?>
<!DOCTYPE svg PUBLIC "-//W3C//DTD SVG 20010904//EN"
 "http://www.w3.org/TR/2001/REC-SVG-20010904/DTD/svg10.dtd">
<svg version="1.0" xmlns="http://www.w3.org/2000/svg"
 width="90.000000pt" height="180.000000pt" viewBox="0 0 90.000000 180.000000"
 preserveAspectRatio="xMidYMid meet">
<metadata>
Created by potrace 1.13, written by Peter Selinger 2001-2015
</metadata>
<g transform="translate(0.000000,180.000000) scale(0.100000,-0.100000)"
fill="#000000" stroke="none">
<path d="M430 1440 c-9 -7 -41 -9 -85 -5 -129 11 -162 -23 -125 -134 23 -71
28 -237 11 -342 -5 -31 -7 -74 -4 -96 3 -23 -1 -63 -11 -96 -20 -67 -21 -157
-2 -182 13 -18 19 -18 128 -6 84 10 125 10 153 2 51 -14 88 7 83 46 -5 39 -32
52 -67 32 -21 -13 -46 -15 -102 -12 -41 2 -85 6 -98 9 l-23 5 6 227 c4 125 10
243 15 262 4 19 6 75 3 124 l-5 88 54 -5 c30 -3 70 -9 90 -12 52 -10 109 16
109 50 0 19 -7 28 -27 36 -44 17 -87 21 -103 9z"/>
</g>
</svg>
