<?xml version="1.0" standalone="no"?>
<!DOCTYPE svg PUBLIC "-//W3C//DTD SVG 20010904//EN"
 "http://www.w3.org/TR/2001/REC-SVG-20010904/DTD/svg10.dtd">
<svg version="1.0" xmlns="http://www.w3.org/2000/svg"
 width="90.000000pt" height="180.000000pt" viewBox="0 0 90.000000 180.000000"
 preserveAspectRatio="xMidYMid meet">
<metadata>
Created by potrace 1.13, written by Peter Selinger 2001-2015
</metadata>
<g transform="translate(0.000000,180.000000) scale(0.100000,-0.100000)"
fill="#000000" stroke="none">
<path d="M560 1499 c-64 -15 -282 -22 -326 -10 -62 17 -101 0 -116 -51 -9 -31
-9 -49 1 -81 22 -76 32 -229 35 -532 2 -259 4 -304 19 -332 18 -34 44 -47 71
-37 26 10 29 48 9 96 -16 37 -18 63 -15 195 l4 152 34 11 c19 7 34 15 34 20 0
5 21 15 48 23 91 29 145 36 232 27 92 -10 110 -4 110 36 0 23 -33 50 -49 40
-7 -5 -68 -11 -201 -21 -19 -1 -76 -6 -126 -10 l-91 -8 -8 109 c-13 192 -7
255 28 272 44 21 115 30 235 32 67 0 129 3 137 6 29 11 11 76 -19 73 -6 -1
-27 -5 -46 -10z"/>
</g>
</svg>
