<?xml version="1.0" standalone="no"?>
<!DOCTYPE svg PUBLIC "-//W3C//DTD SVG 20010904//EN"
 "http://www.w3.org/TR/2001/REC-SVG-20010904/DTD/svg10.dtd">
<svg version="1.0" xmlns="http://www.w3.org/2000/svg"
 width="90.000000pt" height="180.000000pt" viewBox="0 0 90.000000 180.000000"
 preserveAspectRatio="xMidYMid meet">
<metadata>
Created by potrace 1.13, written by Peter Selinger 2001-2015
</metadata>
<g transform="translate(0.000000,180.000000) scale(0.100000,-0.100000)"
fill="#000000" stroke="none">
<path d="M412 1410 c-40 -17 -118 -104 -147 -165 -38 -80 -41 -142 -13 -225
21 -58 27 -67 67 -87 28 -14 54 -20 70 -17 79 17 162 47 204 73 l47 31 -6 -28
c-4 -15 -31 -88 -60 -162 -29 -75 -60 -163 -69 -195 -9 -33 -24 -85 -32 -115
-9 -30 -18 -83 -20 -117 -4 -55 -2 -63 17 -73 26 -14 57 -5 71 22 8 14 7 33
-1 70 -13 53 -10 70 58 298 27 93 144 361 174 399 21 28 22 41 6 75 -23 52
-80 45 -99 -12 -15 -49 -93 -129 -149 -155 -56 -25 -116 -37 -154 -30 -57 12
-91 155 -51 218 30 48 66 88 97 112 43 31 117 22 160 -20 35 -35 66 -49 87
-37 23 12 28 57 11 90 -19 35 -216 72 -268 50z"/>
</g>
</svg>
