<?xml version="1.0" standalone="no"?>
<!DOCTYPE svg PUBLIC "-//W3C//DTD SVG 20010904//EN"
 "http://www.w3.org/TR/2001/REC-SVG-20010904/DTD/svg10.dtd">
<svg version="1.0" xmlns="http://www.w3.org/2000/svg"
 width="90.000000pt" height="180.000000pt" viewBox="0 0 90.000000 180.000000"
 preserveAspectRatio="xMidYMid meet">
<metadata>
Created by potrace 1.13, written by Peter Selinger 2001-2015
</metadata>
<g transform="translate(0.000000,180.000000) scale(0.100000,-0.100000)"
fill="#000000" stroke="none">
<path d="M355 1683 c-55 -4 -75 -21 -75 -63 0 -49 36 -64 70 -30 29 29 68 25
101 -10 16 -16 29 -35 29 -41 0 -6 -23 -63 -51 -126 -65 -147 -71 -197 -35
-309 27 -85 47 -110 109 -139 34 -16 50 -35 29 -35 -14 0 -31 -45 -47 -125
-15 -73 -15 -74 15 -191 17 -64 35 -125 40 -135 16 -29 11 -101 -10 -146 -22
-50 -38 -67 -105 -118 -46 -34 -53 -37 -98 -31 -55 8 -77 -4 -77 -39 0 -41 11
-55 41 -55 40 0 91 23 149 65 26 19 52 35 57 35 12 0 44 44 74 100 33 64 30
135 -15 304 -39 145 -40 170 -10 246 11 27 26 42 57 56 40 18 42 21 42 64 l0
45 -45 6 c-105 15 -159 65 -175 159 -13 74 -9 92 44 200 62 128 66 169 20 248
-17 31 -40 57 -55 62 -14 6 -26 9 -27 8 -1 -1 -24 -3 -52 -5z"/>
</g>
</svg>
