<?xml version="1.0" standalone="no"?>
<!DOCTYPE svg PUBLIC "-//W3C//DTD SVG 20010904//EN"
 "http://www.w3.org/TR/2001/REC-SVG-20010904/DTD/svg10.dtd">
<svg version="1.0" xmlns="http://www.w3.org/2000/svg"
 width="90.000000pt" height="180.000000pt" viewBox="0 0 90.000000 180.000000"
 preserveAspectRatio="xMidYMid meet">
<metadata>
Created by potrace 1.13, written by Peter Selinger 2001-2015
</metadata>
<g transform="translate(0.000000,180.000000) scale(0.100000,-0.100000)"
fill="#000000" stroke="none">
<path d="M186 1134 c-20 -19 -15 -58 11 -86 8 -9 22 -47 31 -85 20 -80 15
-283 -8 -345 -11 -30 -11 -45 -2 -77 15 -48 42 -60 79 -36 25 17 25 20 19 89
-10 115 -6 233 9 277 8 23 35 69 59 103 35 49 53 65 84 74 55 17 67 15 110
-12 27 -17 41 -36 54 -72 27 -77 30 -119 19 -269 -9 -135 -9 -141 11 -157 25
-22 32 -22 53 -1 13 13 15 26 9 62 -4 25 -8 123 -8 216 -1 158 -3 173 -25 215
-32 62 -49 79 -87 86 -19 3 -37 10 -40 15 -9 16 -73 10 -113 -10 -38 -20 -141
-124 -141 -142 0 -6 -4 -8 -9 -5 -5 3 -7 32 -4 64 3 46 1 63 -14 80 -25 30
-75 39 -97 16z"/>
</g>
</svg>
