<?xml version="1.0" standalone="no"?>
<!DOCTYPE svg PUBLIC "-//W3C//DTD SVG 20010904//EN"
 "http://www.w3.org/TR/2001/REC-SVG-20010904/DTD/svg10.dtd">
<svg version="1.0" xmlns="http://www.w3.org/2000/svg"
 width="90.000000pt" height="180.000000pt" viewBox="0 0 90.000000 180.000000"
 preserveAspectRatio="xMidYMid meet">
<metadata>
Created by potrace 1.13, written by Peter Selinger 2001-2015
</metadata>
<g transform="translate(0.000000,180.000000) scale(0.100000,-0.100000)"
fill="#000000" stroke="none">
<path d="M343 1430 c-54 -32 -113 -91 -113 -113 0 -30 31 -57 65 -57 32 0 38
5 66 55 21 37 39 57 56 61 38 10 112 -4 149 -27 54 -33 46 -56 -58 -170 -95
-105 -134 -160 -143 -197 -12 -56 5 -202 26 -223 11 -11 23 -19 28 -19 17 0
42 32 37 47 -3 8 -9 52 -12 98 -7 81 -6 84 26 141 19 33 63 87 98 121 130 125
141 165 66 229 -48 42 -118 70 -193 79 -39 5 -54 1 -98 -25z"/>
<path d="M402 454 c-28 -19 -28 -50 -2 -64 27 -14 57 -4 65 20 12 39 -30 68
-63 44z"/>
</g>
</svg>
