<?xml version="1.0" standalone="no"?>
<!DOCTYPE svg PUBLIC "-//W3C//DTD SVG 20010904//EN"
 "http://www.w3.org/TR/2001/REC-SVG-20010904/DTD/svg10.dtd">
<svg version="1.0" xmlns="http://www.w3.org/2000/svg"
 width="90.000000pt" height="180.000000pt" viewBox="0 0 90.000000 180.000000"
 preserveAspectRatio="xMidYMid meet">
<metadata>
Created by potrace 1.13, written by Peter Selinger 2001-2015
</metadata>
<g transform="translate(0.000000,180.000000) scale(0.100000,-0.100000)"
fill="#000000" stroke="none">
<path d="M339 1216 c-47 -12 -107 -49 -124 -75 -28 -44 -56 -143 -61 -216 -5
-76 -3 -83 28 -140 40 -72 78 -95 158 -95 38 0 66 6 89 21 l33 20 -6 -36 c-4
-20 -16 -56 -27 -81 -22 -52 -24 -124 -8 -241 11 -83 18 -97 73 -155 38 -41
62 -46 129 -27 53 14 84 66 92 156 l7 70 -37 42 c-21 23 -48 44 -61 47 -35 9
-30 20 30 60 30 20 57 42 60 50 9 23 -4 44 -32 51 -20 5 -30 0 -51 -24 -32
-37 -75 -66 -118 -81 -28 -9 -33 -9 -33 5 0 31 100 345 127 397 11 21 13 44 8
87 -8 66 -30 102 -78 125 -18 8 -43 21 -57 28 -39 21 -91 26 -141 12z m108
-88 c56 -30 75 -78 64 -163 -9 -72 -16 -87 -75 -144 -41 -40 -50 -45 -95 -45
-57 -1 -76 12 -99 71 -20 51 -18 102 8 184 23 70 43 93 99 109 41 13 53 11 98
-12z m114 -682 c53 -9 83 -46 76 -92 -6 -38 -31 -84 -46 -84 -4 0 -27 13 -49
30 -34 24 -44 40 -58 86 -13 47 -14 58 -3 65 8 5 21 7 29 5 8 -2 31 -7 51 -10z"/>
</g>
</svg>
