<?xml version="1.0" standalone="no"?>
<!DOCTYPE svg PUBLIC "-//W3C//DTD SVG 20010904//EN"
 "http://www.w3.org/TR/2001/REC-SVG-20010904/DTD/svg10.dtd">
<svg version="1.0" xmlns="http://www.w3.org/2000/svg"
 width="90.000000pt" height="180.000000pt" viewBox="0 0 90.000000 180.000000"
 preserveAspectRatio="xMidYMid meet">
<metadata>
Created by potrace 1.13, written by Peter Selinger 2001-2015
</metadata>
<g transform="translate(0.000000,180.000000) scale(0.100000,-0.100000)"
fill="#000000" stroke="none">
<path d="M430 1421 c-64 -10 -99 -32 -160 -98 -71 -77 -94 -130 -81 -181 12
-41 100 -147 131 -157 11 -4 20 -10 20 -15 0 -5 -31 -44 -70 -87 -118 -131
-145 -211 -94 -273 54 -64 155 -89 227 -55 18 8 59 24 91 36 128 47 200 193
147 297 -18 36 -32 47 -92 74 l-70 31 28 23 c15 13 65 49 111 80 89 60 115 90
110 125 -8 58 -74 46 -108 -21 -13 -25 -40 -53 -69 -73 -27 -18 -69 -49 -94
-70 l-46 -38 -33 17 c-68 34 -108 94 -108 161 1 34 7 44 64 93 71 61 113 75
179 61 30 -7 50 -21 75 -50 50 -61 102 -53 102 15 0 40 -45 78 -116 100 -50
15 -71 15 -144 5z m55 -496 c17 -7 45 -25 63 -41 40 -35 43 -79 10 -144 -19
-37 -35 -52 -93 -82 -133 -71 -251 -41 -224 57 10 32 86 149 132 202 31 35 44
36 112 8z"/>
</g>
</svg>
