<?xml version="1.0" standalone="no"?>
<!DOCTYPE svg PUBLIC "-//W3C//DTD SVG 20010904//EN"
 "http://www.w3.org/TR/2001/REC-SVG-20010904/DTD/svg10.dtd">
<svg version="1.0" xmlns="http://www.w3.org/2000/svg"
 width="180.000000pt" height="180.000000pt" viewBox="0 0 180.000000 180.000000"
 preserveAspectRatio="xMidYMid meet">
<metadata>
Created by potrace 1.13, written by Peter Selinger 2001-2015
</metadata>
<g transform="translate(0.000000,180.000000) scale(0.100000,-0.100000)"
fill="#000000" stroke="none">
<path d="M660 1433 c-41 -15 -51 -36 -50 -103 1 -36 -3 -96 -9 -135 -6 -38 -8
-104 -6 -145 4 -50 -1 -103 -12 -159 -16 -75 -21 -86 -48 -101 -41 -22 -46
-63 -11 -86 45 -29 66 -4 100 117 23 83 31 135 37 254 10 191 28 267 69 280
32 10 247 -5 300 -21 61 -19 77 -18 112 7 64 46 5 110 -81 87 -36 -10 -344 -6
-371 4 -8 4 -22 4 -30 1z"/>
</g>
</svg>
