<?xml version="1.0" standalone="no"?>
<!DOCTYPE svg PUBLIC "-//W3C//DTD SVG 20010904//EN"
 "http://www.w3.org/TR/2001/REC-SVG-20010904/DTD/svg10.dtd">
<svg version="1.0" xmlns="http://www.w3.org/2000/svg"
 width="180.000000pt" height="180.000000pt" viewBox="0 0 180.000000 180.000000"
 preserveAspectRatio="xMidYMid meet">
<metadata>
Created by potrace 1.13, written by Peter Selinger 2001-2015
</metadata>
<g transform="translate(0.000000,180.000000) scale(0.100000,-0.100000)"
fill="#000000" stroke="none">
<path d="M786 1504 c-21 -21 -20 -42 4 -82 12 -20 31 -35 48 -38 44 -9 80 -48
126 -137 83 -159 103 -292 59 -388 -11 -24 -36 -77 -54 -118 -24 -53 -56 -98
-108 -155 -41 -45 -85 -87 -97 -95 -29 -19 -35 -44 -17 -70 23 -34 57 -26 87
19 14 22 39 46 55 54 57 30 148 185 202 344 16 47 29 100 29 118 0 99 -93 362
-144 409 -6 6 -28 35 -49 66 -23 33 -52 63 -73 72 -43 21 -49 21 -68 1z"/>
</g>
</svg>
