<?xml version="1.0" standalone="no"?>
<!DOCTYPE svg PUBLIC "-//W3C//DTD SVG 20010904//EN"
 "http://www.w3.org/TR/2001/REC-SVG-20010904/DTD/svg10.dtd">
<svg version="1.0" xmlns="http://www.w3.org/2000/svg"
 width="180.000000pt" height="180.000000pt" viewBox="0 0 180.000000 180.000000"
 preserveAspectRatio="xMidYMid meet">
<metadata>
Created by potrace 1.13, written by Peter Selinger 2001-2015
</metadata>
<g transform="translate(0.000000,180.000000) scale(0.100000,-0.100000)"
fill="#000000" stroke="none">
<path d="M925 1406 c-42 -18 -115 -27 -295 -35 -86 -5 -165 -13 -177 -19 -11
-6 -24 -24 -28 -39 -10 -41 4 -170 27 -248 28 -93 26 -196 -6 -358 -14 -71
-28 -133 -31 -138 -10 -15 13 -46 45 -59 24 -10 46 -10 100 -1 38 6 82 11 99
11 51 0 62 49 28 130 -6 14 -12 45 -13 70 -2 25 -5 59 -7 75 -3 17 3 45 13 65
9 19 22 73 28 119 12 86 21 101 58 101 11 0 58 11 104 25 48 14 109 25 142 25
45 0 63 5 78 20 27 27 25 62 -5 98 -14 17 -25 35 -25 41 0 26 -53 109 -76 120
-14 6 -26 11 -27 11 -1 -1 -15 -7 -32 -14z m20 -133 c19 -20 32 -40 30 -44 -3
-3 -22 -9 -44 -13 -22 -3 -61 -15 -87 -26 -39 -17 -59 -20 -114 -14 -91 9
-110 -2 -110 -64 -1 -47 -10 -126 -29 -237 -6 -36 -7 -105 -3 -172 8 -123 7
-126 -50 -104 l-24 9 18 154 c21 170 19 247 -7 302 -21 43 -23 132 -6 174 10
23 22 31 62 40 28 7 81 12 117 13 37 0 90 4 117 9 88 13 94 12 130 -27z"/>
</g>
</svg>
