<?xml version="1.0" standalone="no"?>
<!DOCTYPE svg PUBLIC "-//W3C//DTD SVG 20010904//EN"
 "http://www.w3.org/TR/2001/REC-SVG-20010904/DTD/svg10.dtd">
<svg version="1.0" xmlns="http://www.w3.org/2000/svg"
 width="180.000000pt" height="180.000000pt" viewBox="0 0 180.000000 180.000000"
 preserveAspectRatio="xMidYMid meet">
<metadata>
Created by potrace 1.13, written by Peter Selinger 2001-2015
</metadata>
<g transform="translate(0.000000,180.000000) scale(0.100000,-0.100000)"
fill="#000000" stroke="none">
<path d="M770 1505 c-36 -7 -79 -13 -96 -14 -22 -1 -44 -14 -76 -43 -25 -24
-57 -51 -71 -61 -21 -14 -27 -26 -27 -56 0 -50 20 -67 63 -55 24 7 37 20 52
52 24 49 41 62 115 89 40 14 65 18 90 12 43 -9 100 -71 100 -109 0 -27 -36
-70 -58 -70 -20 0 -82 -61 -102 -100 -21 -41 -24 -98 -14 -263 6 -98 8 -109
29 -123 18 -12 29 -13 44 -5 21 12 36 45 27 60 -3 5 -10 64 -15 132 -11 149
-3 177 58 208 56 29 109 87 117 128 5 27 0 48 -24 97 -28 57 -89 126 -112 126
-4 0 -14 2 -22 4 -7 1 -42 -3 -78 -9z"/>
<path d="M844 405 c-4 -15 -1 -32 6 -40 18 -21 57 -19 70 5 16 30 -4 60 -40
60 -23 0 -31 -5 -36 -25z"/>
</g>
</svg>
