<?xml version="1.0" standalone="no"?>
<!DOCTYPE svg PUBLIC "-//W3C//DTD SVG 20010904//EN"
 "http://www.w3.org/TR/2001/REC-SVG-20010904/DTD/svg10.dtd">
<svg version="1.0" xmlns="http://www.w3.org/2000/svg"
 width="180.000000pt" height="180.000000pt" viewBox="0 0 180.000000 180.000000"
 preserveAspectRatio="xMidYMid meet">
<metadata>
Created by potrace 1.13, written by Peter Selinger 2001-2015
</metadata>
<g transform="translate(0.000000,180.000000) scale(0.100000,-0.100000)"
fill="#000000" stroke="none">
<path d="M822 1528 c-27 -14 -46 -76 -33 -110 16 -43 -1 -423 -21 -461 -22
-42 50 -90 81 -54 7 9 11 76 11 188 0 168 9 269 28 306 5 10 12 35 15 56 5 32
2 43 -18 63 -27 27 -30 27 -63 12z"/>
<path d="M793 554 c-15 -24 -15 -29 -2 -53 21 -37 72 -41 94 -8 27 41 -5 86
-62 87 -7 0 -20 -12 -30 -26z"/>
</g>
</svg>
