<?xml version="1.0" standalone="no"?>
<!DOCTYPE svg PUBLIC "-//W3C//DTD SVG 20010904//EN"
 "http://www.w3.org/TR/2001/REC-SVG-20010904/DTD/svg10.dtd">
<svg version="1.0" xmlns="http://www.w3.org/2000/svg"
 width="180.000000pt" height="180.000000pt" viewBox="0 0 180.000000 180.000000"
 preserveAspectRatio="xMidYMid meet">
<metadata>
Created by potrace 1.13, written by Peter Selinger 2001-2015
</metadata>
<g transform="translate(0.000000,180.000000) scale(0.100000,-0.100000)"
fill="#000000" stroke="none">
<path d="M741 1395 c-17 -20 -31 -43 -31 -51 0 -17 -64 -95 -148 -183 -30 -31
-59 -66 -65 -77 -7 -12 -31 -38 -55 -57 -48 -40 -122 -134 -122 -155 0 -26 65
-80 106 -88 46 -8 89 -35 209 -130 84 -66 106 -88 188 -187 56 -67 66 -76 92
-83 32 -8 55 11 55 46 0 22 -27 50 -170 171 -94 79 -200 167 -236 194 -35 28
-71 60 -79 72 -16 23 -14 28 52 144 12 20 27 47 35 60 33 58 188 209 215 209
5 0 20 11 32 24 19 21 22 31 16 65 -6 38 -27 61 -53 61 -6 0 -24 -16 -41 -35z"/>
<path d="M1066 1338 c-9 -12 -16 -32 -16 -44 0 -14 -31 -49 -92 -105 -51 -46
-114 -105 -141 -131 -26 -27 -52 -48 -57 -48 -19 0 -50 -40 -50 -65 0 -34 35
-63 100 -81 82 -24 296 -129 309 -151 5 -11 34 -30 63 -43 33 -14 76 -45 111
-81 61 -61 84 -70 111 -43 19 18 19 22 5 63 -11 32 -42 56 -58 46 -9 -5 -45
15 -206 116 -44 27 -126 74 -181 104 -56 31 -107 62 -114 70 -11 13 -4 25 39
73 92 102 125 132 198 183 79 54 93 79 71 126 -18 38 -69 44 -92 11z"/>
</g>
</svg>
