<?xml version="1.0" standalone="no"?>
<!DOCTYPE svg PUBLIC "-//W3C//DTD SVG 20010904//EN"
 "http://www.w3.org/TR/2001/REC-SVG-20010904/DTD/svg10.dtd">
<svg version="1.0" xmlns="http://www.w3.org/2000/svg"
 width="180.000000pt" height="180.000000pt" viewBox="0 0 180.000000 180.000000"
 preserveAspectRatio="xMidYMid meet">
<metadata>
Created by potrace 1.13, written by Peter Selinger 2001-2015
</metadata>
<g transform="translate(0.000000,180.000000) scale(0.100000,-0.100000)"
fill="#000000" stroke="none">
<path d="M745 1046 c-44 -44 -60 -159 -27 -189 26 -23 85 -22 106 2 10 11 24
37 31 58 14 40 46 56 69 33 31 -31 34 -138 6 -250 -9 -35 -51 -70 -83 -70 -23
0 -40 -27 -33 -54 10 -41 40 -42 100 -2 88 58 105 99 113 274 l6 122 -42 39
c-69 64 -200 83 -246 37z"/>
</g>
</svg>
