<?xml version="1.0" standalone="no"?>
<!DOCTYPE svg PUBLIC "-//W3C//DTD SVG 20010904//EN"
 "http://www.w3.org/TR/2001/REC-SVG-20010904/DTD/svg10.dtd">
<svg version="1.0" xmlns="http://www.w3.org/2000/svg"
 width="180.000000pt" height="180.000000pt" viewBox="0 0 180.000000 180.000000"
 preserveAspectRatio="xMidYMid meet">
<metadata>
Created by potrace 1.13, written by Peter Selinger 2001-2015
</metadata>
<g transform="translate(0.000000,180.000000) scale(0.100000,-0.100000)"
fill="#000000" stroke="none">
<path d="M918 1459 c-43 -24 -215 -208 -236 -251 -63 -129 -59 -359 8 -483 18
-33 36 -62 40 -65 5 -3 12 -18 15 -33 9 -33 167 -197 190 -197 60 0 73 57 24
99 -106 89 -148 140 -190 227 -42 87 -43 91 -43 194 0 115 20 202 57 253 45
61 104 113 162 142 50 25 61 35 63 58 6 52 -45 83 -90 56z"/>
</g>
</svg>
