<?xml version="1.0" standalone="no"?>
<!DOCTYPE svg PUBLIC "-//W3C//DTD SVG 20010904//EN"
 "http://www.w3.org/TR/2001/REC-SVG-20010904/DTD/svg10.dtd">
<svg version="1.0" xmlns="http://www.w3.org/2000/svg"
 width="180.000000pt" height="180.000000pt" viewBox="0 0 180.000000 180.000000"
 preserveAspectRatio="xMidYMid meet">
<metadata>
Created by potrace 1.13, written by Peter Selinger 2001-2015
</metadata>
<g transform="translate(0.000000,180.000000) scale(0.100000,-0.100000)"
fill="#000000" stroke="none">
<path d="M790 1439 c-13 -23 -5 -73 13 -87 7 -5 28 -15 47 -22 19 -7 58 -32
87 -54 62 -49 200 -155 303 -232 78 -59 150 -123 150 -135 0 -7 -184 -99 -199
-99 -4 0 -26 -13 -47 -28 -40 -29 -126 -78 -204 -118 -76 -38 -260 -212 -260
-245 0 -11 37 -49 48 -49 19 0 53 34 78 78 20 36 53 68 127 123 186 138 300
194 506 249 58 15 94 51 83 82 -5 13 -54 57 -109 98 -344 257 -416 313 -451
357 -61 78 -92 103 -127 103 -24 0 -38 -6 -45 -21z"/>
<path d="M492 1408 c-31 -31 13 -106 82 -137 59 -27 172 -150 281 -307 l36
-52 -18 -28 c-10 -16 -70 -78 -133 -138 -189 -179 -290 -287 -290 -311 0 -26
18 -45 42 -45 10 0 41 32 75 77 91 122 273 291 363 338 31 16 70 68 70 93 0 7
-23 34 -52 60 -28 26 -88 97 -133 157 -45 61 -105 135 -133 166 -29 31 -52 61
-52 66 0 22 -80 73 -113 73 -7 0 -18 -5 -25 -12z"/>
</g>
</svg>
