<?xml version="1.0" standalone="no"?>
<!DOCTYPE svg PUBLIC "-//W3C//DTD SVG 20010904//EN"
 "http://www.w3.org/TR/2001/REC-SVG-20010904/DTD/svg10.dtd">
<svg version="1.0" xmlns="http://www.w3.org/2000/svg"
 width="180.000000pt" height="180.000000pt" viewBox="0 0 180.000000 180.000000"
 preserveAspectRatio="xMidYMid meet">
<metadata>
Created by potrace 1.13, written by Peter Selinger 2001-2015
</metadata>
<g transform="translate(0.000000,180.000000) scale(0.100000,-0.100000)"
fill="#000000" stroke="none">
<path d="M914 1388 c-5 -7 -17 -27 -26 -44 -17 -30 -17 -33 1 -56 16 -20 19
-41 20 -133 0 -61 3 -158 7 -217 4 -70 3 -112 -4 -120 -5 -7 -12 -24 -14 -38
-3 -23 -7 -25 -58 -25 -30 1 -98 7 -150 14 -52 8 -108 13 -125 12 -16 -1 -67
-3 -113 -4 -59 -3 -87 -8 -99 -19 -18 -19 -20 -87 -3 -119 8 -13 11 -54 9
-106 -5 -110 3 -117 89 -78 62 28 64 28 200 21 75 -3 153 -8 172 -11 19 -2 71
-4 115 -5 44 0 110 -6 148 -12 64 -11 68 -10 92 12 36 34 37 47 13 156 -23
106 -28 195 -11 216 17 21 26 139 27 342 1 145 -2 193 -12 203 -18 18 -68 16
-126 -3 -46 -16 -48 -16 -62 5 -17 24 -76 29 -90 9z m200 -186 c11 -119 7
-237 -10 -283 -23 -65 -24 -222 -1 -277 20 -49 14 -87 -15 -103 -26 -14 -286
-12 -363 3 -33 6 -111 11 -172 11 l-113 1 0 55 c0 31 4 61 8 67 4 7 48 17 99
23 80 10 104 9 190 -8 54 -11 113 -27 131 -36 39 -20 96 -13 109 13 4 9 9 139
10 287 1 149 3 280 4 292 1 18 8 23 38 25 74 6 78 3 85 -70z"/>
</g>
</svg>
