<?xml version="1.0" standalone="no"?>
<!DOCTYPE svg PUBLIC "-//W3C//DTD SVG 20010904//EN"
 "http://www.w3.org/TR/2001/REC-SVG-20010904/DTD/svg10.dtd">
<svg version="1.0" xmlns="http://www.w3.org/2000/svg"
 width="180.000000pt" height="180.000000pt" viewBox="0 0 180.000000 180.000000"
 preserveAspectRatio="xMidYMid meet">
<metadata>
Created by potrace 1.13, written by Peter Selinger 2001-2015
</metadata>
<g transform="translate(0.000000,180.000000) scale(0.100000,-0.100000)"
fill="#000000" stroke="none">
<path d="M1101 1341 c-11 -11 -23 -33 -26 -48 -4 -16 -11 -46 -16 -68 -6 -22
-12 -105 -13 -185 -4 -139 -20 -335 -31 -371 -11 -33 -80 -50 -236 -56 -156
-6 -177 -13 -165 -51 6 -18 18 -19 222 -17 252 3 254 4 254 89 0 28 7 110 16
181 15 126 18 223 8 256 -9 30 16 112 46 153 44 60 37 114 -17 131 -15 4 -28
0 -42 -14z"/>
</g>
</svg>
